<svg xmlns="http://www.w3.org/2000/svg" version="1.1" xmlns:xlink="http://www.w3.org/1999/xlink" xmlns:svgjs="http://svgjs.com/svgjs" width="1440" height="1000" preserveAspectRatio="none" viewBox="0 0 1440 1000"><g mask="url(&quot;#SvgjsMask1012&quot;)" fill="none"><rect width="1440" height="1000" x="0" y="0" fill="url(#SvgjsLinearGradient1013)"></rect><path d="M234.91 169.36L363.08 243.36L363.08 391.36L234.91 465.36L106.73 391.36L106.73 243.36zM491.26 613.36L619.43 687.36L619.43 835.36L491.26 909.36L363.08 835.36L363.08 687.36zM619.43 -52.64L747.61 21.36L747.61 169.36L619.43 243.36L491.26 169.36L491.26 21.36zM619.43 391.36L747.61 465.36L747.61 613.36L619.43 687.36L491.26 613.36L491.26 465.36zM747.61 1057.36L875.78 1131.36L875.78 1279.36L747.61 1353.36L619.43 1279.36L619.43 1131.36zM875.78 -52.64L1003.96 21.36L1003.96 169.36L875.78 243.36L747.61 169.36L747.61 21.36zM1003.96 1057.36L1132.13 1131.36L1132.13 1279.36L1003.96 1353.36L875.78 1279.36L875.78 1131.36zM1260.31 169.36L1388.48 243.36L1388.48 391.36L1260.31 465.36L1132.13 391.36L1132.13 243.36zM1132.13 391.36L1260.31 465.36L1260.31 613.36L1132.13 687.36L1003.96 613.36L1003.96 465.36zM1260.31 613.36L1388.48 687.36L1388.48 835.36L1260.31 909.36L1132.13 835.36L1132.13 687.36zM1388.48 -52.64L1516.66 21.36L1516.66 169.36L1388.48 243.36L1260.31 169.36L1260.31 21.36zM1516.66 169.36L1644.83 243.36L1644.83 391.36L1516.66 465.36L1388.48 391.36L1388.48 243.36zM1388.48 391.36L1516.66 465.36L1516.66 613.36L1388.48 687.36L1260.31 613.36L1260.31 465.36zM1516.66 1057.36L1644.83 1131.36L1644.83 1279.36L1516.66 1353.36L1388.48 1279.36L1388.48 1131.36z" stroke="rgba(16, 114, 201, 0.48)" stroke-width="2"></path><path d="M220.11 169.36 a14.8 14.8 0 1 0 29.6 0 a14.8 14.8 0 1 0 -29.6 0zM348.28 243.36 a14.8 14.8 0 1 0 29.6 0 a14.8 14.8 0 1 0 -29.6 0zM348.28 391.36 a14.8 14.8 0 1 0 29.6 0 a14.8 14.8 0 1 0 -29.6 0zM220.11 465.36 a14.8 14.8 0 1 0 29.6 0 a14.8 14.8 0 1 0 -29.6 0zM91.93 391.36 a14.8 14.8 0 1 0 29.6 0 a14.8 14.8 0 1 0 -29.6 0zM91.93 243.36 a14.8 14.8 0 1 0 29.6 0 a14.8 14.8 0 1 0 -29.6 0zM476.46 613.36 a14.8 14.8 0 1 0 29.6 0 a14.8 14.8 0 1 0 -29.6 0zM604.63 687.36 a14.8 14.8 0 1 0 29.6 0 a14.8 14.8 0 1 0 -29.6 0zM604.63 835.36 a14.8 14.8 0 1 0 29.6 0 a14.8 14.8 0 1 0 -29.6 0zM476.46 909.36 a14.8 14.8 0 1 0 29.6 0 a14.8 14.8 0 1 0 -29.6 0zM348.28 835.36 a14.8 14.8 0 1 0 29.6 0 a14.8 14.8 0 1 0 -29.6 0zM348.28 687.36 a14.8 14.8 0 1 0 29.6 0 a14.8 14.8 0 1 0 -29.6 0zM604.63 -52.64 a14.8 14.8 0 1 0 29.6 0 a14.8 14.8 0 1 0 -29.6 0zM732.81 21.36 a14.8 14.8 0 1 0 29.6 0 a14.8 14.8 0 1 0 -29.6 0zM732.81 169.36 a14.8 14.8 0 1 0 29.6 0 a14.8 14.8 0 1 0 -29.6 0zM604.63 243.36 a14.8 14.8 0 1 0 29.6 0 a14.8 14.8 0 1 0 -29.6 0zM476.46 169.36 a14.8 14.8 0 1 0 29.6 0 a14.8 14.8 0 1 0 -29.6 0zM476.46 21.36 a14.8 14.8 0 1 0 29.6 0 a14.8 14.8 0 1 0 -29.6 0zM604.63 391.36 a14.8 14.8 0 1 0 29.6 0 a14.8 14.8 0 1 0 -29.6 0zM732.81 465.36 a14.8 14.8 0 1 0 29.6 0 a14.8 14.8 0 1 0 -29.6 0zM732.81 613.36 a14.8 14.8 0 1 0 29.6 0 a14.8 14.8 0 1 0 -29.6 0zM476.46 465.36 a14.8 14.8 0 1 0 29.6 0 a14.8 14.8 0 1 0 -29.6 0zM732.81 1057.36 a14.8 14.8 0 1 0 29.6 0 a14.8 14.8 0 1 0 -29.6 0zM860.98 1131.36 a14.8 14.8 0 1 0 29.6 0 a14.8 14.8 0 1 0 -29.6 0zM860.98 1279.36 a14.8 14.8 0 1 0 29.6 0 a14.8 14.8 0 1 0 -29.6 0zM732.81 1353.36 a14.8 14.8 0 1 0 29.6 0 a14.8 14.8 0 1 0 -29.6 0zM604.63 1279.36 a14.8 14.8 0 1 0 29.6 0 a14.8 14.8 0 1 0 -29.6 0zM604.63 1131.36 a14.8 14.8 0 1 0 29.6 0 a14.8 14.8 0 1 0 -29.6 0zM860.98 -52.64 a14.8 14.8 0 1 0 29.6 0 a14.8 14.8 0 1 0 -29.6 0zM989.16 21.36 a14.8 14.8 0 1 0 29.6 0 a14.8 14.8 0 1 0 -29.6 0zM989.16 169.36 a14.8 14.8 0 1 0 29.6 0 a14.8 14.8 0 1 0 -29.6 0zM860.98 243.36 a14.8 14.8 0 1 0 29.6 0 a14.8 14.8 0 1 0 -29.6 0zM989.16 1057.36 a14.8 14.8 0 1 0 29.6 0 a14.8 14.8 0 1 0 -29.6 0zM1117.33 1131.36 a14.8 14.8 0 1 0 29.6 0 a14.8 14.8 0 1 0 -29.6 0zM1117.33 1279.36 a14.8 14.8 0 1 0 29.6 0 a14.8 14.8 0 1 0 -29.6 0zM989.16 1353.36 a14.8 14.8 0 1 0 29.6 0 a14.8 14.8 0 1 0 -29.6 0zM1245.51 169.36 a14.8 14.8 0 1 0 29.6 0 a14.8 14.8 0 1 0 -29.6 0zM1373.68 243.36 a14.8 14.8 0 1 0 29.6 0 a14.8 14.8 0 1 0 -29.6 0zM1373.68 391.36 a14.8 14.8 0 1 0 29.6 0 a14.8 14.8 0 1 0 -29.6 0zM1245.51 465.36 a14.8 14.8 0 1 0 29.6 0 a14.8 14.8 0 1 0 -29.6 0zM1117.33 391.36 a14.8 14.8 0 1 0 29.6 0 a14.8 14.8 0 1 0 -29.6 0zM1117.33 243.36 a14.8 14.8 0 1 0 29.6 0 a14.8 14.8 0 1 0 -29.6 0zM1245.51 613.36 a14.8 14.8 0 1 0 29.6 0 a14.8 14.8 0 1 0 -29.6 0zM1117.33 687.36 a14.8 14.8 0 1 0 29.6 0 a14.8 14.8 0 1 0 -29.6 0zM989.16 613.36 a14.8 14.8 0 1 0 29.6 0 a14.8 14.8 0 1 0 -29.6 0zM989.16 465.36 a14.8 14.8 0 1 0 29.6 0 a14.8 14.8 0 1 0 -29.6 0zM1373.68 687.36 a14.8 14.8 0 1 0 29.6 0 a14.8 14.8 0 1 0 -29.6 0zM1373.68 835.36 a14.8 14.8 0 1 0 29.6 0 a14.8 14.8 0 1 0 -29.6 0zM1245.51 909.36 a14.8 14.8 0 1 0 29.6 0 a14.8 14.8 0 1 0 -29.6 0zM1117.33 835.36 a14.8 14.8 0 1 0 29.6 0 a14.8 14.8 0 1 0 -29.6 0zM1373.68 -52.64 a14.8 14.8 0 1 0 29.6 0 a14.8 14.8 0 1 0 -29.6 0zM1501.86 21.36 a14.8 14.8 0 1 0 29.6 0 a14.8 14.8 0 1 0 -29.6 0zM1501.86 169.36 a14.8 14.8 0 1 0 29.6 0 a14.8 14.8 0 1 0 -29.6 0zM1245.51 21.36 a14.8 14.8 0 1 0 29.6 0 a14.8 14.8 0 1 0 -29.6 0zM1630.03 243.36 a14.8 14.8 0 1 0 29.6 0 a14.8 14.8 0 1 0 -29.6 0zM1630.03 391.36 a14.8 14.8 0 1 0 29.6 0 a14.8 14.8 0 1 0 -29.6 0zM1501.86 465.36 a14.8 14.8 0 1 0 29.6 0 a14.8 14.8 0 1 0 -29.6 0zM1501.86 613.36 a14.8 14.8 0 1 0 29.6 0 a14.8 14.8 0 1 0 -29.6 0zM1501.86 1057.36 a14.8 14.8 0 1 0 29.6 0 a14.8 14.8 0 1 0 -29.6 0zM1630.03 1131.36 a14.8 14.8 0 1 0 29.6 0 a14.8 14.8 0 1 0 -29.6 0zM1630.03 1279.36 a14.8 14.8 0 1 0 29.6 0 a14.8 14.8 0 1 0 -29.6 0zM1501.86 1353.36 a14.8 14.8 0 1 0 29.6 0 a14.8 14.8 0 1 0 -29.6 0zM1373.68 1279.36 a14.8 14.8 0 1 0 29.6 0 a14.8 14.8 0 1 0 -29.6 0zM1373.68 1131.36 a14.8 14.8 0 1 0 29.6 0 a14.8 14.8 0 1 0 -29.6 0z" fill="rgba(16, 114, 201, 0.48)"></path><path d="M29.06 228.32L116.53 278.82L116.53 379.82L29.06 430.32L-58.41 379.82L-58.41 278.82zM29.06 531.32L116.53 581.82L116.53 682.82L29.06 733.32L-58.41 682.82L-58.41 581.82zM29.06 834.32L116.53 884.82L116.53 985.82L29.06 1036.32L-58.41 985.82L-58.41 884.82zM291.47 379.82L378.94 430.32L378.94 531.32L291.47 581.82L204 531.32L204 430.32zM291.47 682.82L378.94 733.32L378.94 834.32L291.47 884.82L204 834.32L204 733.32zM204 834.32L291.47 884.82L291.47 985.82L204 1036.32L116.53 985.82L116.53 884.82zM378.94 -74.68L466.42 -24.18L466.42 76.82L378.94 127.32L291.47 76.82L291.47 -24.18zM466.42 76.82L553.89 127.32L553.89 228.32L466.42 278.82L378.94 228.32L378.94 127.32zM378.94 228.32L466.42 278.82L466.42 379.82L378.94 430.32L291.47 379.82L291.47 278.82zM378.94 531.32L466.42 581.82L466.42 682.82L378.94 733.32L291.47 682.82L291.47 581.82zM378.94 834.32L466.42 884.82L466.42 985.82L378.94 1036.32L291.47 985.82L291.47 884.82zM466.42 985.82L553.89 1036.32L553.89 1137.32L466.42 1187.82L378.94 1137.32L378.94 1036.32zM641.36 76.82L728.83 127.32L728.83 228.32L641.36 278.82L553.89 228.32L553.89 127.32zM553.89 228.32L641.36 278.82L641.36 379.82L553.89 430.32L466.42 379.82L466.42 278.82zM641.36 682.82L728.83 733.32L728.83 834.32L641.36 884.82L553.89 834.32L553.89 733.32zM816.3 379.82L903.77 430.32L903.77 531.32L816.3 581.82L728.83 531.32L728.83 430.32zM728.83 531.32L816.3 581.82L816.3 682.82L728.83 733.32L641.36 682.82L641.36 581.82zM816.3 682.82L903.77 733.32L903.77 834.32L816.3 884.82L728.83 834.32L728.83 733.32zM728.83 834.32L816.3 884.82L816.3 985.82L728.83 1036.32L641.36 985.82L641.36 884.82zM903.77 -74.68L991.24 -24.18L991.24 76.82L903.77 127.32L816.3 76.82L816.3 -24.18zM903.77 531.32L991.24 581.82L991.24 682.82L903.77 733.32L816.3 682.82L816.3 581.82zM991.24 682.82L1078.71 733.32L1078.71 834.32L991.24 884.82L903.77 834.32L903.77 733.32zM903.77 834.32L991.24 884.82L991.24 985.82L903.77 1036.32L816.3 985.82L816.3 884.82zM991.24 985.82L1078.71 1036.32L1078.71 1137.32L991.24 1187.82L903.77 1137.32L903.77 1036.32zM1078.71 -74.68L1166.18 -24.18L1166.18 76.82L1078.71 127.32L991.24 76.82L991.24 -24.18zM1078.71 531.32L1166.18 581.82L1166.18 682.82L1078.71 733.32L991.24 682.82L991.24 581.82zM1166.18 682.82L1253.65 733.32L1253.65 834.32L1166.18 884.82L1078.71 834.32L1078.71 733.32zM1078.71 834.32L1166.18 884.82L1166.18 985.82L1078.71 1036.32L991.24 985.82L991.24 884.82zM1253.65 -74.68L1341.13 -24.18L1341.13 76.82L1253.65 127.32L1166.18 76.82L1166.18 -24.18zM1341.13 76.82L1428.6 127.32L1428.6 228.32L1341.13 278.82L1253.65 228.32L1253.65 127.32zM1253.65 834.32L1341.13 884.82L1341.13 985.82L1253.65 1036.32L1166.18 985.82L1166.18 884.82zM1428.6 -74.68L1516.07 -24.18L1516.07 76.82L1428.6 127.32L1341.13 76.82L1341.13 -24.18zM1516.07 379.82L1603.54 430.32L1603.54 531.32L1516.07 581.82L1428.6 531.32L1428.6 430.32zM1428.6 834.32L1516.07 884.82L1516.07 985.82L1428.6 1036.32L1341.13 985.82L1341.13 884.82z" stroke="rgba(90, 208, 229, 0.5)" stroke-width="2"></path><path d="M18.96 228.32 a10.1 10.1 0 1 0 20.2 0 a10.1 10.1 0 1 0 -20.2 0zM106.43 278.82 a10.1 10.1 0 1 0 20.2 0 a10.1 10.1 0 1 0 -20.2 0zM106.43 379.82 a10.1 10.1 0 1 0 20.2 0 a10.1 10.1 0 1 0 -20.2 0zM18.96 430.32 a10.1 10.1 0 1 0 20.2 0 a10.1 10.1 0 1 0 -20.2 0zM-68.51 379.82 a10.1 10.1 0 1 0 20.2 0 a10.1 10.1 0 1 0 -20.2 0zM-68.51 278.82 a10.1 10.1 0 1 0 20.2 0 a10.1 10.1 0 1 0 -20.2 0zM18.96 531.32 a10.1 10.1 0 1 0 20.2 0 a10.1 10.1 0 1 0 -20.2 0zM106.43 581.82 a10.1 10.1 0 1 0 20.2 0 a10.1 10.1 0 1 0 -20.2 0zM106.43 682.82 a10.1 10.1 0 1 0 20.2 0 a10.1 10.1 0 1 0 -20.2 0zM18.96 733.32 a10.1 10.1 0 1 0 20.2 0 a10.1 10.1 0 1 0 -20.2 0zM-68.51 682.82 a10.1 10.1 0 1 0 20.2 0 a10.1 10.1 0 1 0 -20.2 0zM-68.51 581.82 a10.1 10.1 0 1 0 20.2 0 a10.1 10.1 0 1 0 -20.2 0zM18.96 834.32 a10.1 10.1 0 1 0 20.2 0 a10.1 10.1 0 1 0 -20.2 0zM106.43 884.82 a10.1 10.1 0 1 0 20.2 0 a10.1 10.1 0 1 0 -20.2 0zM106.43 985.82 a10.1 10.1 0 1 0 20.2 0 a10.1 10.1 0 1 0 -20.2 0zM18.96 1036.32 a10.1 10.1 0 1 0 20.2 0 a10.1 10.1 0 1 0 -20.2 0zM-68.51 985.82 a10.1 10.1 0 1 0 20.2 0 a10.1 10.1 0 1 0 -20.2 0zM-68.51 884.82 a10.1 10.1 0 1 0 20.2 0 a10.1 10.1 0 1 0 -20.2 0zM281.37 379.82 a10.1 10.1 0 1 0 20.2 0 a10.1 10.1 0 1 0 -20.2 0zM368.84 430.32 a10.1 10.1 0 1 0 20.2 0 a10.1 10.1 0 1 0 -20.2 0zM368.84 531.32 a10.1 10.1 0 1 0 20.2 0 a10.1 10.1 0 1 0 -20.2 0zM281.37 581.82 a10.1 10.1 0 1 0 20.2 0 a10.1 10.1 0 1 0 -20.2 0zM193.9 531.32 a10.1 10.1 0 1 0 20.2 0 a10.1 10.1 0 1 0 -20.2 0zM193.9 430.32 a10.1 10.1 0 1 0 20.2 0 a10.1 10.1 0 1 0 -20.2 0zM281.37 682.82 a10.1 10.1 0 1 0 20.2 0 a10.1 10.1 0 1 0 -20.2 0zM368.84 733.32 a10.1 10.1 0 1 0 20.2 0 a10.1 10.1 0 1 0 -20.2 0zM368.84 834.32 a10.1 10.1 0 1 0 20.2 0 a10.1 10.1 0 1 0 -20.2 0zM281.37 884.82 a10.1 10.1 0 1 0 20.2 0 a10.1 10.1 0 1 0 -20.2 0zM193.9 834.32 a10.1 10.1 0 1 0 20.2 0 a10.1 10.1 0 1 0 -20.2 0zM193.9 733.32 a10.1 10.1 0 1 0 20.2 0 a10.1 10.1 0 1 0 -20.2 0zM281.37 985.82 a10.1 10.1 0 1 0 20.2 0 a10.1 10.1 0 1 0 -20.2 0zM193.9 1036.32 a10.1 10.1 0 1 0 20.2 0 a10.1 10.1 0 1 0 -20.2 0zM368.84 -74.68 a10.1 10.1 0 1 0 20.2 0 a10.1 10.1 0 1 0 -20.2 0zM456.32 -24.18 a10.1 10.1 0 1 0 20.2 0 a10.1 10.1 0 1 0 -20.2 0zM456.32 76.82 a10.1 10.1 0 1 0 20.2 0 a10.1 10.1 0 1 0 -20.2 0zM368.84 127.32 a10.1 10.1 0 1 0 20.2 0 a10.1 10.1 0 1 0 -20.2 0zM281.37 76.82 a10.1 10.1 0 1 0 20.2 0 a10.1 10.1 0 1 0 -20.2 0zM281.37 -24.18 a10.1 10.1 0 1 0 20.2 0 a10.1 10.1 0 1 0 -20.2 0zM543.79 127.32 a10.1 10.1 0 1 0 20.2 0 a10.1 10.1 0 1 0 -20.2 0zM543.79 228.32 a10.1 10.1 0 1 0 20.2 0 a10.1 10.1 0 1 0 -20.2 0zM456.32 278.82 a10.1 10.1 0 1 0 20.2 0 a10.1 10.1 0 1 0 -20.2 0zM368.84 228.32 a10.1 10.1 0 1 0 20.2 0 a10.1 10.1 0 1 0 -20.2 0zM456.32 379.82 a10.1 10.1 0 1 0 20.2 0 a10.1 10.1 0 1 0 -20.2 0zM281.37 278.82 a10.1 10.1 0 1 0 20.2 0 a10.1 10.1 0 1 0 -20.2 0zM456.32 581.82 a10.1 10.1 0 1 0 20.2 0 a10.1 10.1 0 1 0 -20.2 0zM456.32 682.82 a10.1 10.1 0 1 0 20.2 0 a10.1 10.1 0 1 0 -20.2 0zM456.32 884.82 a10.1 10.1 0 1 0 20.2 0 a10.1 10.1 0 1 0 -20.2 0zM456.32 985.82 a10.1 10.1 0 1 0 20.2 0 a10.1 10.1 0 1 0 -20.2 0zM368.84 1036.32 a10.1 10.1 0 1 0 20.2 0 a10.1 10.1 0 1 0 -20.2 0zM543.79 1036.32 a10.1 10.1 0 1 0 20.2 0 a10.1 10.1 0 1 0 -20.2 0zM543.79 1137.32 a10.1 10.1 0 1 0 20.2 0 a10.1 10.1 0 1 0 -20.2 0zM456.32 1187.82 a10.1 10.1 0 1 0 20.2 0 a10.1 10.1 0 1 0 -20.2 0zM368.84 1137.32 a10.1 10.1 0 1 0 20.2 0 a10.1 10.1 0 1 0 -20.2 0zM631.26 76.82 a10.1 10.1 0 1 0 20.2 0 a10.1 10.1 0 1 0 -20.2 0zM718.73 127.32 a10.1 10.1 0 1 0 20.2 0 a10.1 10.1 0 1 0 -20.2 0zM718.73 228.32 a10.1 10.1 0 1 0 20.2 0 a10.1 10.1 0 1 0 -20.2 0zM631.26 278.82 a10.1 10.1 0 1 0 20.2 0 a10.1 10.1 0 1 0 -20.2 0zM631.26 379.82 a10.1 10.1 0 1 0 20.2 0 a10.1 10.1 0 1 0 -20.2 0zM543.79 430.32 a10.1 10.1 0 1 0 20.2 0 a10.1 10.1 0 1 0 -20.2 0zM631.26 682.82 a10.1 10.1 0 1 0 20.2 0 a10.1 10.1 0 1 0 -20.2 0zM718.73 733.32 a10.1 10.1 0 1 0 20.2 0 a10.1 10.1 0 1 0 -20.2 0zM718.73 834.32 a10.1 10.1 0 1 0 20.2 0 a10.1 10.1 0 1 0 -20.2 0zM631.26 884.82 a10.1 10.1 0 1 0 20.2 0 a10.1 10.1 0 1 0 -20.2 0zM543.79 834.32 a10.1 10.1 0 1 0 20.2 0 a10.1 10.1 0 1 0 -20.2 0zM543.79 733.32 a10.1 10.1 0 1 0 20.2 0 a10.1 10.1 0 1 0 -20.2 0zM806.2 379.82 a10.1 10.1 0 1 0 20.2 0 a10.1 10.1 0 1 0 -20.2 0zM893.67 430.32 a10.1 10.1 0 1 0 20.2 0 a10.1 10.1 0 1 0 -20.2 0zM893.67 531.32 a10.1 10.1 0 1 0 20.2 0 a10.1 10.1 0 1 0 -20.2 0zM806.2 581.82 a10.1 10.1 0 1 0 20.2 0 a10.1 10.1 0 1 0 -20.2 0zM718.73 531.32 a10.1 10.1 0 1 0 20.2 0 a10.1 10.1 0 1 0 -20.2 0zM718.73 430.32 a10.1 10.1 0 1 0 20.2 0 a10.1 10.1 0 1 0 -20.2 0zM806.2 682.82 a10.1 10.1 0 1 0 20.2 0 a10.1 10.1 0 1 0 -20.2 0zM631.26 581.82 a10.1 10.1 0 1 0 20.2 0 a10.1 10.1 0 1 0 -20.2 0zM893.67 733.32 a10.1 10.1 0 1 0 20.2 0 a10.1 10.1 0 1 0 -20.2 0zM893.67 834.32 a10.1 10.1 0 1 0 20.2 0 a10.1 10.1 0 1 0 -20.2 0zM806.2 884.82 a10.1 10.1 0 1 0 20.2 0 a10.1 10.1 0 1 0 -20.2 0zM806.2 985.82 a10.1 10.1 0 1 0 20.2 0 a10.1 10.1 0 1 0 -20.2 0zM718.73 1036.32 a10.1 10.1 0 1 0 20.2 0 a10.1 10.1 0 1 0 -20.2 0zM631.26 985.82 a10.1 10.1 0 1 0 20.2 0 a10.1 10.1 0 1 0 -20.2 0zM893.67 -74.68 a10.1 10.1 0 1 0 20.2 0 a10.1 10.1 0 1 0 -20.2 0zM981.14 -24.18 a10.1 10.1 0 1 0 20.2 0 a10.1 10.1 0 1 0 -20.2 0zM981.14 76.82 a10.1 10.1 0 1 0 20.2 0 a10.1 10.1 0 1 0 -20.2 0zM893.67 127.32 a10.1 10.1 0 1 0 20.2 0 a10.1 10.1 0 1 0 -20.2 0zM806.2 76.82 a10.1 10.1 0 1 0 20.2 0 a10.1 10.1 0 1 0 -20.2 0zM806.2 -24.18 a10.1 10.1 0 1 0 20.2 0 a10.1 10.1 0 1 0 -20.2 0zM981.14 581.82 a10.1 10.1 0 1 0 20.2 0 a10.1 10.1 0 1 0 -20.2 0zM981.14 682.82 a10.1 10.1 0 1 0 20.2 0 a10.1 10.1 0 1 0 -20.2 0zM1068.61 733.32 a10.1 10.1 0 1 0 20.2 0 a10.1 10.1 0 1 0 -20.2 0zM1068.61 834.32 a10.1 10.1 0 1 0 20.2 0 a10.1 10.1 0 1 0 -20.2 0zM981.14 884.82 a10.1 10.1 0 1 0 20.2 0 a10.1 10.1 0 1 0 -20.2 0zM981.14 985.82 a10.1 10.1 0 1 0 20.2 0 a10.1 10.1 0 1 0 -20.2 0zM893.67 1036.32 a10.1 10.1 0 1 0 20.2 0 a10.1 10.1 0 1 0 -20.2 0zM1068.61 1036.32 a10.1 10.1 0 1 0 20.2 0 a10.1 10.1 0 1 0 -20.2 0zM1068.61 1137.32 a10.1 10.1 0 1 0 20.2 0 a10.1 10.1 0 1 0 -20.2 0zM981.14 1187.82 a10.1 10.1 0 1 0 20.2 0 a10.1 10.1 0 1 0 -20.2 0zM893.67 1137.32 a10.1 10.1 0 1 0 20.2 0 a10.1 10.1 0 1 0 -20.2 0zM1068.61 -74.68 a10.1 10.1 0 1 0 20.2 0 a10.1 10.1 0 1 0 -20.2 0zM1156.08 -24.18 a10.1 10.1 0 1 0 20.2 0 a10.1 10.1 0 1 0 -20.2 0zM1156.08 76.82 a10.1 10.1 0 1 0 20.2 0 a10.1 10.1 0 1 0 -20.2 0zM1068.61 127.32 a10.1 10.1 0 1 0 20.2 0 a10.1 10.1 0 1 0 -20.2 0zM1068.61 531.32 a10.1 10.1 0 1 0 20.2 0 a10.1 10.1 0 1 0 -20.2 0zM1156.08 581.82 a10.1 10.1 0 1 0 20.2 0 a10.1 10.1 0 1 0 -20.2 0zM1156.08 682.82 a10.1 10.1 0 1 0 20.2 0 a10.1 10.1 0 1 0 -20.2 0zM1243.55 733.32 a10.1 10.1 0 1 0 20.2 0 a10.1 10.1 0 1 0 -20.2 0zM1243.55 834.32 a10.1 10.1 0 1 0 20.2 0 a10.1 10.1 0 1 0 -20.2 0zM1156.08 884.82 a10.1 10.1 0 1 0 20.2 0 a10.1 10.1 0 1 0 -20.2 0zM1156.08 985.82 a10.1 10.1 0 1 0 20.2 0 a10.1 10.1 0 1 0 -20.2 0zM1243.55 -74.68 a10.1 10.1 0 1 0 20.2 0 a10.1 10.1 0 1 0 -20.2 0zM1331.03 -24.18 a10.1 10.1 0 1 0 20.2 0 a10.1 10.1 0 1 0 -20.2 0zM1331.03 76.82 a10.1 10.1 0 1 0 20.2 0 a10.1 10.1 0 1 0 -20.2 0zM1243.55 127.32 a10.1 10.1 0 1 0 20.2 0 a10.1 10.1 0 1 0 -20.2 0zM1418.5 127.32 a10.1 10.1 0 1 0 20.2 0 a10.1 10.1 0 1 0 -20.2 0zM1418.5 228.32 a10.1 10.1 0 1 0 20.2 0 a10.1 10.1 0 1 0 -20.2 0zM1331.03 278.82 a10.1 10.1 0 1 0 20.2 0 a10.1 10.1 0 1 0 -20.2 0zM1243.55 228.32 a10.1 10.1 0 1 0 20.2 0 a10.1 10.1 0 1 0 -20.2 0zM1331.03 884.82 a10.1 10.1 0 1 0 20.2 0 a10.1 10.1 0 1 0 -20.2 0zM1331.03 985.82 a10.1 10.1 0 1 0 20.2 0 a10.1 10.1 0 1 0 -20.2 0zM1243.55 1036.32 a10.1 10.1 0 1 0 20.2 0 a10.1 10.1 0 1 0 -20.2 0zM1418.5 -74.68 a10.1 10.1 0 1 0 20.2 0 a10.1 10.1 0 1 0 -20.2 0zM1505.97 -24.18 a10.1 10.1 0 1 0 20.2 0 a10.1 10.1 0 1 0 -20.2 0zM1505.97 76.82 a10.1 10.1 0 1 0 20.2 0 a10.1 10.1 0 1 0 -20.2 0zM1505.97 379.82 a10.1 10.1 0 1 0 20.2 0 a10.1 10.1 0 1 0 -20.2 0zM1593.44 430.32 a10.1 10.1 0 1 0 20.2 0 a10.1 10.1 0 1 0 -20.2 0zM1593.44 531.32 a10.1 10.1 0 1 0 20.2 0 a10.1 10.1 0 1 0 -20.2 0zM1505.97 581.82 a10.1 10.1 0 1 0 20.2 0 a10.1 10.1 0 1 0 -20.2 0zM1418.5 531.32 a10.1 10.1 0 1 0 20.2 0 a10.1 10.1 0 1 0 -20.2 0zM1418.5 430.32 a10.1 10.1 0 1 0 20.2 0 a10.1 10.1 0 1 0 -20.2 0zM1418.5 834.32 a10.1 10.1 0 1 0 20.2 0 a10.1 10.1 0 1 0 -20.2 0zM1505.97 884.82 a10.1 10.1 0 1 0 20.2 0 a10.1 10.1 0 1 0 -20.2 0zM1505.97 985.82 a10.1 10.1 0 1 0 20.2 0 a10.1 10.1 0 1 0 -20.2 0zM1418.5 1036.32 a10.1 10.1 0 1 0 20.2 0 a10.1 10.1 0 1 0 -20.2 0z" fill="rgba(90, 208, 229, 0.5)"></path><path d="M84.05 28.95L127.36 53.95L127.36 103.95L84.05 128.95L40.75 103.95L40.75 53.95zM40.75 103.95L84.05 128.95L84.05 178.95L40.75 203.95L-2.55 178.95L-2.55 128.95zM40.75 253.95L84.05 278.95L84.05 328.95L40.75 353.95L-2.55 328.95L-2.55 278.95zM84.05 328.95L127.36 353.95L127.36 403.95L84.05 428.95L40.75 403.95L40.75 353.95zM40.75 853.95L84.05 878.95L84.05 928.95L40.75 953.95L-2.55 928.95L-2.55 878.95zM84.05 928.95L127.36 953.95L127.36 1003.95L84.05 1028.95L40.75 1003.95L40.75 953.95zM127.36 -46.05L170.66 -21.05L170.66 28.95L127.36 53.95L84.05 28.95L84.05 -21.05zM170.66 328.95L213.96 353.95L213.96 403.95L170.66 428.95L127.36 403.95L127.36 353.95zM257.26 178.95L300.56 203.95L300.56 253.95L257.26 278.95L213.96 253.95L213.96 203.95zM257.26 928.95L300.56 953.95L300.56 1003.95L257.26 1028.95L213.96 1003.95L213.96 953.95zM300.56 -46.05L343.87 -21.05L343.87 28.95L300.56 53.95L257.26 28.95L257.26 -21.05zM343.87 178.95L387.17 203.95L387.17 253.95L343.87 278.95L300.56 253.95L300.56 203.95zM343.87 328.95L387.17 353.95L387.17 403.95L343.87 428.95L300.56 403.95L300.56 353.95zM300.56 853.95L343.87 878.95L343.87 928.95L300.56 953.95L257.26 928.95L257.26 878.95zM343.87 928.95L387.17 953.95L387.17 1003.95L343.87 1028.95L300.56 1003.95L300.56 953.95zM387.17 403.95L430.47 428.95L430.47 478.95L387.17 503.95L343.87 478.95L343.87 428.95zM387.17 553.95L430.47 578.95L430.47 628.95L387.17 653.95L343.87 628.95L343.87 578.95zM430.47 628.95L473.78 653.95L473.78 703.95L430.47 728.95L387.17 703.95L387.17 653.95zM387.17 703.95L430.47 728.95L430.47 778.95L387.17 803.95L343.87 778.95L343.87 728.95zM387.17 853.95L430.47 878.95L430.47 928.95L387.17 953.95L343.87 928.95L343.87 878.95zM430.47 928.95L473.78 953.95L473.78 1003.95L430.47 1028.95L387.17 1003.95L387.17 953.95zM517.08 28.95L560.38 53.95L560.38 103.95L517.08 128.95L473.78 103.95L473.78 53.95zM473.78 403.95L517.08 428.95L517.08 478.95L473.78 503.95L430.47 478.95L430.47 428.95zM517.08 478.95L560.38 503.95L560.38 553.95L517.08 578.95L473.78 553.95L473.78 503.95zM473.78 703.95L517.08 728.95L517.08 778.95L473.78 803.95L430.47 778.95L430.47 728.95zM473.78 853.95L517.08 878.95L517.08 928.95L473.78 953.95L430.47 928.95L430.47 878.95zM560.38 103.95L603.68 128.95L603.68 178.95L560.38 203.95L517.08 178.95L517.08 128.95zM560.38 253.95L603.68 278.95L603.68 328.95L560.38 353.95L517.08 328.95L517.08 278.95zM560.38 703.95L603.68 728.95L603.68 778.95L560.38 803.95L517.08 778.95L517.08 728.95zM603.68 778.95L646.99 803.95L646.99 853.95L603.68 878.95L560.38 853.95L560.38 803.95zM690.29 178.95L733.59 203.95L733.59 253.95L690.29 278.95L646.99 253.95L646.99 203.95zM646.99 253.95L690.29 278.95L690.29 328.95L646.99 353.95L603.68 328.95L603.68 278.95zM733.59 -46.05L776.89 -21.05L776.89 28.95L733.59 53.95L690.29 28.95L690.29 -21.05zM733.59 103.95L776.89 128.95L776.89 178.95L733.59 203.95L690.29 178.95L690.29 128.95zM776.89 328.95L820.2 353.95L820.2 403.95L776.89 428.95L733.59 403.95L733.59 353.95zM776.89 478.95L820.2 503.95L820.2 553.95L776.89 578.95L733.59 553.95L733.59 503.95zM776.89 928.95L820.2 953.95L820.2 1003.95L776.89 1028.95L733.59 1003.95L733.59 953.95zM863.5 28.95L906.8 53.95L906.8 103.95L863.5 128.95L820.2 103.95L820.2 53.95zM863.5 178.95L906.8 203.95L906.8 253.95L863.5 278.95L820.2 253.95L820.2 203.95zM820.2 403.95L863.5 428.95L863.5 478.95L820.2 503.95L776.89 478.95L776.89 428.95zM863.5 478.95L906.8 503.95L906.8 553.95L863.5 578.95L820.2 553.95L820.2 503.95zM863.5 928.95L906.8 953.95L906.8 1003.95L863.5 1028.95L820.2 1003.95L820.2 953.95zM906.8 -46.05L950.1 -21.05L950.1 28.95L906.8 53.95L863.5 28.95L863.5 -21.05zM906.8 253.95L950.1 278.95L950.1 328.95L906.8 353.95L863.5 328.95L863.5 278.95zM950.1 328.95L993.41 353.95L993.41 403.95L950.1 428.95L906.8 403.95L906.8 353.95zM906.8 403.95L950.1 428.95L950.1 478.95L906.8 503.95L863.5 478.95L863.5 428.95zM950.1 478.95L993.41 503.95L993.41 553.95L950.1 578.95L906.8 553.95L906.8 503.95zM950.1 628.95L993.41 653.95L993.41 703.95L950.1 728.95L906.8 703.95L906.8 653.95zM906.8 703.95L950.1 728.95L950.1 778.95L906.8 803.95L863.5 778.95L863.5 728.95zM950.1 778.95L993.41 803.95L993.41 853.95L950.1 878.95L906.8 853.95L906.8 803.95zM906.8 853.95L950.1 878.95L950.1 928.95L906.8 953.95L863.5 928.95L863.5 878.95zM993.41 -46.05L1036.71 -21.05L1036.71 28.95L993.41 53.95L950.1 28.95L950.1 -21.05zM1036.71 178.95L1080.01 203.95L1080.01 253.95L1036.71 278.95L993.41 253.95L993.41 203.95zM1036.71 328.95L1080.01 353.95L1080.01 403.95L1036.71 428.95L993.41 403.95L993.41 353.95zM1123.31 28.95L1166.62 53.95L1166.62 103.95L1123.31 128.95L1080.01 103.95L1080.01 53.95zM1080.01 403.95L1123.31 428.95L1123.31 478.95L1080.01 503.95L1036.71 478.95L1036.71 428.95zM1123.31 478.95L1166.62 503.95L1166.62 553.95L1123.31 578.95L1080.01 553.95L1080.01 503.95zM1123.31 928.95L1166.62 953.95L1166.62 1003.95L1123.31 1028.95L1080.01 1003.95L1080.01 953.95zM1166.62 103.95L1209.92 128.95L1209.92 178.95L1166.62 203.95L1123.31 178.95L1123.31 128.95zM1209.92 328.95L1253.22 353.95L1253.22 403.95L1209.92 428.95L1166.62 403.95L1166.62 353.95zM1166.62 403.95L1209.92 428.95L1209.92 478.95L1166.62 503.95L1123.31 478.95L1123.31 428.95zM1209.92 778.95L1253.22 803.95L1253.22 853.95L1209.92 878.95L1166.62 853.95L1166.62 803.95zM1209.92 928.95L1253.22 953.95L1253.22 1003.95L1209.92 1028.95L1166.62 1003.95L1166.62 953.95zM1253.22 253.95L1296.52 278.95L1296.52 328.95L1253.22 353.95L1209.92 328.95L1209.92 278.95zM1296.52 328.95L1339.83 353.95L1339.83 403.95L1296.52 428.95L1253.22 403.95L1253.22 353.95zM1253.22 403.95L1296.52 428.95L1296.52 478.95L1253.22 503.95L1209.92 478.95L1209.92 428.95zM1296.52 478.95L1339.83 503.95L1339.83 553.95L1296.52 578.95L1253.22 553.95L1253.22 503.95zM1296.52 778.95L1339.83 803.95L1339.83 853.95L1296.52 878.95L1253.22 853.95L1253.22 803.95zM1339.83 103.95L1383.13 128.95L1383.13 178.95L1339.83 203.95L1296.52 178.95L1296.52 128.95zM1383.13 178.95L1426.43 203.95L1426.43 253.95L1383.13 278.95L1339.83 253.95L1339.83 203.95zM1383.13 328.95L1426.43 353.95L1426.43 403.95L1383.13 428.95L1339.83 403.95L1339.83 353.95zM1339.83 553.95L1383.13 578.95L1383.13 628.95L1339.83 653.95L1296.52 628.95L1296.52 578.95zM1339.83 853.95L1383.13 878.95L1383.13 928.95L1339.83 953.95L1296.52 928.95L1296.52 878.95zM1426.43 703.95L1469.73 728.95L1469.73 778.95L1426.43 803.95L1383.13 778.95L1383.13 728.95zM1469.73 778.95L1513.04 803.95L1513.04 853.95L1469.73 878.95L1426.43 853.95L1426.43 803.95z" stroke="rgba(128, 162, 162, 0.57)" stroke-width="2"></path><path d="M79.05 28.95 a5 5 0 1 0 10 0 a5 5 0 1 0 -10 0zM122.36 53.95 a5 5 0 1 0 10 0 a5 5 0 1 0 -10 0zM122.36 103.95 a5 5 0 1 0 10 0 a5 5 0 1 0 -10 0zM79.05 128.95 a5 5 0 1 0 10 0 a5 5 0 1 0 -10 0zM35.75 103.95 a5 5 0 1 0 10 0 a5 5 0 1 0 -10 0zM35.75 53.95 a5 5 0 1 0 10 0 a5 5 0 1 0 -10 0zM79.05 178.95 a5 5 0 1 0 10 0 a5 5 0 1 0 -10 0zM35.75 203.95 a5 5 0 1 0 10 0 a5 5 0 1 0 -10 0zM-7.55 178.95 a5 5 0 1 0 10 0 a5 5 0 1 0 -10 0zM-7.55 128.95 a5 5 0 1 0 10 0 a5 5 0 1 0 -10 0zM35.75 253.95 a5 5 0 1 0 10 0 a5 5 0 1 0 -10 0zM79.05 278.95 a5 5 0 1 0 10 0 a5 5 0 1 0 -10 0zM79.05 328.95 a5 5 0 1 0 10 0 a5 5 0 1 0 -10 0zM35.75 353.95 a5 5 0 1 0 10 0 a5 5 0 1 0 -10 0zM-7.55 328.95 a5 5 0 1 0 10 0 a5 5 0 1 0 -10 0zM-7.55 278.95 a5 5 0 1 0 10 0 a5 5 0 1 0 -10 0zM122.36 353.95 a5 5 0 1 0 10 0 a5 5 0 1 0 -10 0zM122.36 403.95 a5 5 0 1 0 10 0 a5 5 0 1 0 -10 0zM79.05 428.95 a5 5 0 1 0 10 0 a5 5 0 1 0 -10 0zM35.75 403.95 a5 5 0 1 0 10 0 a5 5 0 1 0 -10 0zM35.75 853.95 a5 5 0 1 0 10 0 a5 5 0 1 0 -10 0zM79.05 878.95 a5 5 0 1 0 10 0 a5 5 0 1 0 -10 0zM79.05 928.95 a5 5 0 1 0 10 0 a5 5 0 1 0 -10 0zM35.75 953.95 a5 5 0 1 0 10 0 a5 5 0 1 0 -10 0zM-7.55 928.95 a5 5 0 1 0 10 0 a5 5 0 1 0 -10 0zM-7.55 878.95 a5 5 0 1 0 10 0 a5 5 0 1 0 -10 0zM122.36 953.95 a5 5 0 1 0 10 0 a5 5 0 1 0 -10 0zM122.36 1003.95 a5 5 0 1 0 10 0 a5 5 0 1 0 -10 0zM79.05 1028.95 a5 5 0 1 0 10 0 a5 5 0 1 0 -10 0zM35.75 1003.95 a5 5 0 1 0 10 0 a5 5 0 1 0 -10 0zM122.36 -46.05 a5 5 0 1 0 10 0 a5 5 0 1 0 -10 0zM165.66 -21.05 a5 5 0 1 0 10 0 a5 5 0 1 0 -10 0zM165.66 28.95 a5 5 0 1 0 10 0 a5 5 0 1 0 -10 0zM79.05 -21.05 a5 5 0 1 0 10 0 a5 5 0 1 0 -10 0zM165.66 328.95 a5 5 0 1 0 10 0 a5 5 0 1 0 -10 0zM208.96 353.95 a5 5 0 1 0 10 0 a5 5 0 1 0 -10 0zM208.96 403.95 a5 5 0 1 0 10 0 a5 5 0 1 0 -10 0zM165.66 428.95 a5 5 0 1 0 10 0 a5 5 0 1 0 -10 0zM252.26 178.95 a5 5 0 1 0 10 0 a5 5 0 1 0 -10 0zM295.56 203.95 a5 5 0 1 0 10 0 a5 5 0 1 0 -10 0zM295.56 253.95 a5 5 0 1 0 10 0 a5 5 0 1 0 -10 0zM252.26 278.95 a5 5 0 1 0 10 0 a5 5 0 1 0 -10 0zM208.96 253.95 a5 5 0 1 0 10 0 a5 5 0 1 0 -10 0zM208.96 203.95 a5 5 0 1 0 10 0 a5 5 0 1 0 -10 0zM252.26 928.95 a5 5 0 1 0 10 0 a5 5 0 1 0 -10 0zM295.56 953.95 a5 5 0 1 0 10 0 a5 5 0 1 0 -10 0zM295.56 1003.95 a5 5 0 1 0 10 0 a5 5 0 1 0 -10 0zM252.26 1028.95 a5 5 0 1 0 10 0 a5 5 0 1 0 -10 0zM208.96 1003.95 a5 5 0 1 0 10 0 a5 5 0 1 0 -10 0zM208.96 953.95 a5 5 0 1 0 10 0 a5 5 0 1 0 -10 0zM295.56 -46.05 a5 5 0 1 0 10 0 a5 5 0 1 0 -10 0zM338.87 -21.05 a5 5 0 1 0 10 0 a5 5 0 1 0 -10 0zM338.87 28.95 a5 5 0 1 0 10 0 a5 5 0 1 0 -10 0zM295.56 53.95 a5 5 0 1 0 10 0 a5 5 0 1 0 -10 0zM252.26 28.95 a5 5 0 1 0 10 0 a5 5 0 1 0 -10 0zM252.26 -21.05 a5 5 0 1 0 10 0 a5 5 0 1 0 -10 0zM338.87 178.95 a5 5 0 1 0 10 0 a5 5 0 1 0 -10 0zM382.17 203.95 a5 5 0 1 0 10 0 a5 5 0 1 0 -10 0zM382.17 253.95 a5 5 0 1 0 10 0 a5 5 0 1 0 -10 0zM338.87 278.95 a5 5 0 1 0 10 0 a5 5 0 1 0 -10 0zM338.87 328.95 a5 5 0 1 0 10 0 a5 5 0 1 0 -10 0zM382.17 353.95 a5 5 0 1 0 10 0 a5 5 0 1 0 -10 0zM382.17 403.95 a5 5 0 1 0 10 0 a5 5 0 1 0 -10 0zM338.87 428.95 a5 5 0 1 0 10 0 a5 5 0 1 0 -10 0zM295.56 403.95 a5 5 0 1 0 10 0 a5 5 0 1 0 -10 0zM295.56 353.95 a5 5 0 1 0 10 0 a5 5 0 1 0 -10 0zM295.56 853.95 a5 5 0 1 0 10 0 a5 5 0 1 0 -10 0zM338.87 878.95 a5 5 0 1 0 10 0 a5 5 0 1 0 -10 0zM338.87 928.95 a5 5 0 1 0 10 0 a5 5 0 1 0 -10 0zM252.26 878.95 a5 5 0 1 0 10 0 a5 5 0 1 0 -10 0zM382.17 953.95 a5 5 0 1 0 10 0 a5 5 0 1 0 -10 0zM382.17 1003.95 a5 5 0 1 0 10 0 a5 5 0 1 0 -10 0zM338.87 1028.95 a5 5 0 1 0 10 0 a5 5 0 1 0 -10 0zM425.47 428.95 a5 5 0 1 0 10 0 a5 5 0 1 0 -10 0zM425.47 478.95 a5 5 0 1 0 10 0 a5 5 0 1 0 -10 0zM382.17 503.95 a5 5 0 1 0 10 0 a5 5 0 1 0 -10 0zM338.87 478.95 a5 5 0 1 0 10 0 a5 5 0 1 0 -10 0zM382.17 553.95 a5 5 0 1 0 10 0 a5 5 0 1 0 -10 0zM425.47 578.95 a5 5 0 1 0 10 0 a5 5 0 1 0 -10 0zM425.47 628.95 a5 5 0 1 0 10 0 a5 5 0 1 0 -10 0zM382.17 653.95 a5 5 0 1 0 10 0 a5 5 0 1 0 -10 0zM338.87 628.95 a5 5 0 1 0 10 0 a5 5 0 1 0 -10 0zM338.87 578.95 a5 5 0 1 0 10 0 a5 5 0 1 0 -10 0zM468.78 653.95 a5 5 0 1 0 10 0 a5 5 0 1 0 -10 0zM468.78 703.95 a5 5 0 1 0 10 0 a5 5 0 1 0 -10 0zM425.47 728.95 a5 5 0 1 0 10 0 a5 5 0 1 0 -10 0zM382.17 703.95 a5 5 0 1 0 10 0 a5 5 0 1 0 -10 0zM425.47 778.95 a5 5 0 1 0 10 0 a5 5 0 1 0 -10 0zM382.17 803.95 a5 5 0 1 0 10 0 a5 5 0 1 0 -10 0zM338.87 778.95 a5 5 0 1 0 10 0 a5 5 0 1 0 -10 0zM338.87 728.95 a5 5 0 1 0 10 0 a5 5 0 1 0 -10 0zM382.17 853.95 a5 5 0 1 0 10 0 a5 5 0 1 0 -10 0zM425.47 878.95 a5 5 0 1 0 10 0 a5 5 0 1 0 -10 0zM425.47 928.95 a5 5 0 1 0 10 0 a5 5 0 1 0 -10 0zM468.78 953.95 a5 5 0 1 0 10 0 a5 5 0 1 0 -10 0zM468.78 1003.95 a5 5 0 1 0 10 0 a5 5 0 1 0 -10 0zM425.47 1028.95 a5 5 0 1 0 10 0 a5 5 0 1 0 -10 0zM512.08 28.95 a5 5 0 1 0 10 0 a5 5 0 1 0 -10 0zM555.38 53.95 a5 5 0 1 0 10 0 a5 5 0 1 0 -10 0zM555.38 103.95 a5 5 0 1 0 10 0 a5 5 0 1 0 -10 0zM512.08 128.95 a5 5 0 1 0 10 0 a5 5 0 1 0 -10 0zM468.78 103.95 a5 5 0 1 0 10 0 a5 5 0 1 0 -10 0zM468.78 53.95 a5 5 0 1 0 10 0 a5 5 0 1 0 -10 0zM468.78 403.95 a5 5 0 1 0 10 0 a5 5 0 1 0 -10 0zM512.08 428.95 a5 5 0 1 0 10 0 a5 5 0 1 0 -10 0zM512.08 478.95 a5 5 0 1 0 10 0 a5 5 0 1 0 -10 0zM468.78 503.95 a5 5 0 1 0 10 0 a5 5 0 1 0 -10 0zM555.38 503.95 a5 5 0 1 0 10 0 a5 5 0 1 0 -10 0zM555.38 553.95 a5 5 0 1 0 10 0 a5 5 0 1 0 -10 0zM512.08 578.95 a5 5 0 1 0 10 0 a5 5 0 1 0 -10 0zM468.78 553.95 a5 5 0 1 0 10 0 a5 5 0 1 0 -10 0zM512.08 728.95 a5 5 0 1 0 10 0 a5 5 0 1 0 -10 0zM512.08 778.95 a5 5 0 1 0 10 0 a5 5 0 1 0 -10 0zM468.78 803.95 a5 5 0 1 0 10 0 a5 5 0 1 0 -10 0zM468.78 853.95 a5 5 0 1 0 10 0 a5 5 0 1 0 -10 0zM512.08 878.95 a5 5 0 1 0 10 0 a5 5 0 1 0 -10 0zM512.08 928.95 a5 5 0 1 0 10 0 a5 5 0 1 0 -10 0zM598.68 128.95 a5 5 0 1 0 10 0 a5 5 0 1 0 -10 0zM598.68 178.95 a5 5 0 1 0 10 0 a5 5 0 1 0 -10 0zM555.38 203.95 a5 5 0 1 0 10 0 a5 5 0 1 0 -10 0zM512.08 178.95 a5 5 0 1 0 10 0 a5 5 0 1 0 -10 0zM555.38 253.95 a5 5 0 1 0 10 0 a5 5 0 1 0 -10 0zM598.68 278.95 a5 5 0 1 0 10 0 a5 5 0 1 0 -10 0zM598.68 328.95 a5 5 0 1 0 10 0 a5 5 0 1 0 -10 0zM555.38 353.95 a5 5 0 1 0 10 0 a5 5 0 1 0 -10 0zM512.08 328.95 a5 5 0 1 0 10 0 a5 5 0 1 0 -10 0zM512.08 278.95 a5 5 0 1 0 10 0 a5 5 0 1 0 -10 0zM555.38 703.95 a5 5 0 1 0 10 0 a5 5 0 1 0 -10 0zM598.68 728.95 a5 5 0 1 0 10 0 a5 5 0 1 0 -10 0zM598.68 778.95 a5 5 0 1 0 10 0 a5 5 0 1 0 -10 0zM555.38 803.95 a5 5 0 1 0 10 0 a5 5 0 1 0 -10 0zM641.99 803.95 a5 5 0 1 0 10 0 a5 5 0 1 0 -10 0zM641.99 853.95 a5 5 0 1 0 10 0 a5 5 0 1 0 -10 0zM598.68 878.95 a5 5 0 1 0 10 0 a5 5 0 1 0 -10 0zM555.38 853.95 a5 5 0 1 0 10 0 a5 5 0 1 0 -10 0zM685.29 178.95 a5 5 0 1 0 10 0 a5 5 0 1 0 -10 0zM728.59 203.95 a5 5 0 1 0 10 0 a5 5 0 1 0 -10 0zM728.59 253.95 a5 5 0 1 0 10 0 a5 5 0 1 0 -10 0zM685.29 278.95 a5 5 0 1 0 10 0 a5 5 0 1 0 -10 0zM641.99 253.95 a5 5 0 1 0 10 0 a5 5 0 1 0 -10 0zM641.99 203.95 a5 5 0 1 0 10 0 a5 5 0 1 0 -10 0zM685.29 328.95 a5 5 0 1 0 10 0 a5 5 0 1 0 -10 0zM641.99 353.95 a5 5 0 1 0 10 0 a5 5 0 1 0 -10 0zM728.59 -46.05 a5 5 0 1 0 10 0 a5 5 0 1 0 -10 0zM771.89 -21.05 a5 5 0 1 0 10 0 a5 5 0 1 0 -10 0zM771.89 28.95 a5 5 0 1 0 10 0 a5 5 0 1 0 -10 0zM728.59 53.95 a5 5 0 1 0 10 0 a5 5 0 1 0 -10 0zM685.29 28.95 a5 5 0 1 0 10 0 a5 5 0 1 0 -10 0zM685.29 -21.05 a5 5 0 1 0 10 0 a5 5 0 1 0 -10 0zM728.59 103.95 a5 5 0 1 0 10 0 a5 5 0 1 0 -10 0zM771.89 128.95 a5 5 0 1 0 10 0 a5 5 0 1 0 -10 0zM771.89 178.95 a5 5 0 1 0 10 0 a5 5 0 1 0 -10 0zM685.29 128.95 a5 5 0 1 0 10 0 a5 5 0 1 0 -10 0zM771.89 328.95 a5 5 0 1 0 10 0 a5 5 0 1 0 -10 0zM815.2 353.95 a5 5 0 1 0 10 0 a5 5 0 1 0 -10 0zM815.2 403.95 a5 5 0 1 0 10 0 a5 5 0 1 0 -10 0zM771.89 428.95 a5 5 0 1 0 10 0 a5 5 0 1 0 -10 0zM728.59 403.95 a5 5 0 1 0 10 0 a5 5 0 1 0 -10 0zM728.59 353.95 a5 5 0 1 0 10 0 a5 5 0 1 0 -10 0zM771.89 478.95 a5 5 0 1 0 10 0 a5 5 0 1 0 -10 0zM815.2 503.95 a5 5 0 1 0 10 0 a5 5 0 1 0 -10 0zM815.2 553.95 a5 5 0 1 0 10 0 a5 5 0 1 0 -10 0zM771.89 578.95 a5 5 0 1 0 10 0 a5 5 0 1 0 -10 0zM728.59 553.95 a5 5 0 1 0 10 0 a5 5 0 1 0 -10 0zM728.59 503.95 a5 5 0 1 0 10 0 a5 5 0 1 0 -10 0zM771.89 928.95 a5 5 0 1 0 10 0 a5 5 0 1 0 -10 0zM815.2 953.95 a5 5 0 1 0 10 0 a5 5 0 1 0 -10 0zM815.2 1003.95 a5 5 0 1 0 10 0 a5 5 0 1 0 -10 0zM771.89 1028.95 a5 5 0 1 0 10 0 a5 5 0 1 0 -10 0zM728.59 1003.95 a5 5 0 1 0 10 0 a5 5 0 1 0 -10 0zM728.59 953.95 a5 5 0 1 0 10 0 a5 5 0 1 0 -10 0zM858.5 28.95 a5 5 0 1 0 10 0 a5 5 0 1 0 -10 0zM901.8 53.95 a5 5 0 1 0 10 0 a5 5 0 1 0 -10 0zM901.8 103.95 a5 5 0 1 0 10 0 a5 5 0 1 0 -10 0zM858.5 128.95 a5 5 0 1 0 10 0 a5 5 0 1 0 -10 0zM815.2 103.95 a5 5 0 1 0 10 0 a5 5 0 1 0 -10 0zM815.2 53.95 a5 5 0 1 0 10 0 a5 5 0 1 0 -10 0zM858.5 178.95 a5 5 0 1 0 10 0 a5 5 0 1 0 -10 0zM901.8 203.95 a5 5 0 1 0 10 0 a5 5 0 1 0 -10 0zM901.8 253.95 a5 5 0 1 0 10 0 a5 5 0 1 0 -10 0zM858.5 278.95 a5 5 0 1 0 10 0 a5 5 0 1 0 -10 0zM815.2 253.95 a5 5 0 1 0 10 0 a5 5 0 1 0 -10 0zM815.2 203.95 a5 5 0 1 0 10 0 a5 5 0 1 0 -10 0zM858.5 428.95 a5 5 0 1 0 10 0 a5 5 0 1 0 -10 0zM858.5 478.95 a5 5 0 1 0 10 0 a5 5 0 1 0 -10 0zM901.8 503.95 a5 5 0 1 0 10 0 a5 5 0 1 0 -10 0zM901.8 553.95 a5 5 0 1 0 10 0 a5 5 0 1 0 -10 0zM858.5 578.95 a5 5 0 1 0 10 0 a5 5 0 1 0 -10 0zM858.5 928.95 a5 5 0 1 0 10 0 a5 5 0 1 0 -10 0zM901.8 953.95 a5 5 0 1 0 10 0 a5 5 0 1 0 -10 0zM901.8 1003.95 a5 5 0 1 0 10 0 a5 5 0 1 0 -10 0zM858.5 1028.95 a5 5 0 1 0 10 0 a5 5 0 1 0 -10 0zM901.8 -46.05 a5 5 0 1 0 10 0 a5 5 0 1 0 -10 0zM945.1 -21.05 a5 5 0 1 0 10 0 a5 5 0 1 0 -10 0zM945.1 28.95 a5 5 0 1 0 10 0 a5 5 0 1 0 -10 0zM858.5 -21.05 a5 5 0 1 0 10 0 a5 5 0 1 0 -10 0zM945.1 278.95 a5 5 0 1 0 10 0 a5 5 0 1 0 -10 0zM945.1 328.95 a5 5 0 1 0 10 0 a5 5 0 1 0 -10 0zM901.8 353.95 a5 5 0 1 0 10 0 a5 5 0 1 0 -10 0zM858.5 328.95 a5 5 0 1 0 10 0 a5 5 0 1 0 -10 0zM988.41 353.95 a5 5 0 1 0 10 0 a5 5 0 1 0 -10 0zM988.41 403.95 a5 5 0 1 0 10 0 a5 5 0 1 0 -10 0zM945.1 428.95 a5 5 0 1 0 10 0 a5 5 0 1 0 -10 0zM901.8 403.95 a5 5 0 1 0 10 0 a5 5 0 1 0 -10 0zM945.1 478.95 a5 5 0 1 0 10 0 a5 5 0 1 0 -10 0zM988.41 503.95 a5 5 0 1 0 10 0 a5 5 0 1 0 -10 0zM988.41 553.95 a5 5 0 1 0 10 0 a5 5 0 1 0 -10 0zM945.1 578.95 a5 5 0 1 0 10 0 a5 5 0 1 0 -10 0zM945.1 628.95 a5 5 0 1 0 10 0 a5 5 0 1 0 -10 0zM988.41 653.95 a5 5 0 1 0 10 0 a5 5 0 1 0 -10 0zM988.41 703.95 a5 5 0 1 0 10 0 a5 5 0 1 0 -10 0zM945.1 728.95 a5 5 0 1 0 10 0 a5 5 0 1 0 -10 0zM901.8 703.95 a5 5 0 1 0 10 0 a5 5 0 1 0 -10 0zM901.8 653.95 a5 5 0 1 0 10 0 a5 5 0 1 0 -10 0zM945.1 778.95 a5 5 0 1 0 10 0 a5 5 0 1 0 -10 0zM901.8 803.95 a5 5 0 1 0 10 0 a5 5 0 1 0 -10 0zM858.5 778.95 a5 5 0 1 0 10 0 a5 5 0 1 0 -10 0zM858.5 728.95 a5 5 0 1 0 10 0 a5 5 0 1 0 -10 0zM988.41 803.95 a5 5 0 1 0 10 0 a5 5 0 1 0 -10 0zM988.41 853.95 a5 5 0 1 0 10 0 a5 5 0 1 0 -10 0zM945.1 878.95 a5 5 0 1 0 10 0 a5 5 0 1 0 -10 0zM901.8 853.95 a5 5 0 1 0 10 0 a5 5 0 1 0 -10 0zM945.1 928.95 a5 5 0 1 0 10 0 a5 5 0 1 0 -10 0zM858.5 878.95 a5 5 0 1 0 10 0 a5 5 0 1 0 -10 0zM988.41 -46.05 a5 5 0 1 0 10 0 a5 5 0 1 0 -10 0zM1031.71 -21.05 a5 5 0 1 0 10 0 a5 5 0 1 0 -10 0zM1031.71 28.95 a5 5 0 1 0 10 0 a5 5 0 1 0 -10 0zM988.41 53.95 a5 5 0 1 0 10 0 a5 5 0 1 0 -10 0zM1031.71 178.95 a5 5 0 1 0 10 0 a5 5 0 1 0 -10 0zM1075.01 203.95 a5 5 0 1 0 10 0 a5 5 0 1 0 -10 0zM1075.01 253.95 a5 5 0 1 0 10 0 a5 5 0 1 0 -10 0zM1031.71 278.95 a5 5 0 1 0 10 0 a5 5 0 1 0 -10 0zM988.41 253.95 a5 5 0 1 0 10 0 a5 5 0 1 0 -10 0zM988.41 203.95 a5 5 0 1 0 10 0 a5 5 0 1 0 -10 0zM1031.71 328.95 a5 5 0 1 0 10 0 a5 5 0 1 0 -10 0zM1075.01 353.95 a5 5 0 1 0 10 0 a5 5 0 1 0 -10 0zM1075.01 403.95 a5 5 0 1 0 10 0 a5 5 0 1 0 -10 0zM1031.71 428.95 a5 5 0 1 0 10 0 a5 5 0 1 0 -10 0zM1118.31 28.95 a5 5 0 1 0 10 0 a5 5 0 1 0 -10 0zM1161.62 53.95 a5 5 0 1 0 10 0 a5 5 0 1 0 -10 0zM1161.62 103.95 a5 5 0 1 0 10 0 a5 5 0 1 0 -10 0zM1118.31 128.95 a5 5 0 1 0 10 0 a5 5 0 1 0 -10 0zM1075.01 103.95 a5 5 0 1 0 10 0 a5 5 0 1 0 -10 0zM1075.01 53.95 a5 5 0 1 0 10 0 a5 5 0 1 0 -10 0zM1118.31 428.95 a5 5 0 1 0 10 0 a5 5 0 1 0 -10 0zM1118.31 478.95 a5 5 0 1 0 10 0 a5 5 0 1 0 -10 0zM1075.01 503.95 a5 5 0 1 0 10 0 a5 5 0 1 0 -10 0zM1031.71 478.95 a5 5 0 1 0 10 0 a5 5 0 1 0 -10 0zM1161.62 503.95 a5 5 0 1 0 10 0 a5 5 0 1 0 -10 0zM1161.62 553.95 a5 5 0 1 0 10 0 a5 5 0 1 0 -10 0zM1118.31 578.95 a5 5 0 1 0 10 0 a5 5 0 1 0 -10 0zM1075.01 553.95 a5 5 0 1 0 10 0 a5 5 0 1 0 -10 0zM1118.31 928.95 a5 5 0 1 0 10 0 a5 5 0 1 0 -10 0zM1161.62 953.95 a5 5 0 1 0 10 0 a5 5 0 1 0 -10 0zM1161.62 1003.95 a5 5 0 1 0 10 0 a5 5 0 1 0 -10 0zM1118.31 1028.95 a5 5 0 1 0 10 0 a5 5 0 1 0 -10 0zM1075.01 1003.95 a5 5 0 1 0 10 0 a5 5 0 1 0 -10 0zM1075.01 953.95 a5 5 0 1 0 10 0 a5 5 0 1 0 -10 0zM1204.92 128.95 a5 5 0 1 0 10 0 a5 5 0 1 0 -10 0zM1204.92 178.95 a5 5 0 1 0 10 0 a5 5 0 1 0 -10 0zM1161.62 203.95 a5 5 0 1 0 10 0 a5 5 0 1 0 -10 0zM1118.31 178.95 a5 5 0 1 0 10 0 a5 5 0 1 0 -10 0zM1204.92 328.95 a5 5 0 1 0 10 0 a5 5 0 1 0 -10 0zM1248.22 353.95 a5 5 0 1 0 10 0 a5 5 0 1 0 -10 0zM1248.22 403.95 a5 5 0 1 0 10 0 a5 5 0 1 0 -10 0zM1204.92 428.95 a5 5 0 1 0 10 0 a5 5 0 1 0 -10 0zM1161.62 403.95 a5 5 0 1 0 10 0 a5 5 0 1 0 -10 0zM1161.62 353.95 a5 5 0 1 0 10 0 a5 5 0 1 0 -10 0zM1204.92 478.95 a5 5 0 1 0 10 0 a5 5 0 1 0 -10 0zM1204.92 778.95 a5 5 0 1 0 10 0 a5 5 0 1 0 -10 0zM1248.22 803.95 a5 5 0 1 0 10 0 a5 5 0 1 0 -10 0zM1248.22 853.95 a5 5 0 1 0 10 0 a5 5 0 1 0 -10 0zM1204.92 878.95 a5 5 0 1 0 10 0 a5 5 0 1 0 -10 0zM1161.62 853.95 a5 5 0 1 0 10 0 a5 5 0 1 0 -10 0zM1161.62 803.95 a5 5 0 1 0 10 0 a5 5 0 1 0 -10 0zM1204.92 928.95 a5 5 0 1 0 10 0 a5 5 0 1 0 -10 0zM1248.22 953.95 a5 5 0 1 0 10 0 a5 5 0 1 0 -10 0zM1248.22 1003.95 a5 5 0 1 0 10 0 a5 5 0 1 0 -10 0zM1204.92 1028.95 a5 5 0 1 0 10 0 a5 5 0 1 0 -10 0zM1248.22 253.95 a5 5 0 1 0 10 0 a5 5 0 1 0 -10 0zM1291.52 278.95 a5 5 0 1 0 10 0 a5 5 0 1 0 -10 0zM1291.52 328.95 a5 5 0 1 0 10 0 a5 5 0 1 0 -10 0zM1204.92 278.95 a5 5 0 1 0 10 0 a5 5 0 1 0 -10 0zM1334.83 353.95 a5 5 0 1 0 10 0 a5 5 0 1 0 -10 0zM1334.83 403.95 a5 5 0 1 0 10 0 a5 5 0 1 0 -10 0zM1291.52 428.95 a5 5 0 1 0 10 0 a5 5 0 1 0 -10 0zM1291.52 478.95 a5 5 0 1 0 10 0 a5 5 0 1 0 -10 0zM1248.22 503.95 a5 5 0 1 0 10 0 a5 5 0 1 0 -10 0zM1334.83 503.95 a5 5 0 1 0 10 0 a5 5 0 1 0 -10 0zM1334.83 553.95 a5 5 0 1 0 10 0 a5 5 0 1 0 -10 0zM1291.52 578.95 a5 5 0 1 0 10 0 a5 5 0 1 0 -10 0zM1248.22 553.95 a5 5 0 1 0 10 0 a5 5 0 1 0 -10 0zM1291.52 778.95 a5 5 0 1 0 10 0 a5 5 0 1 0 -10 0zM1334.83 803.95 a5 5 0 1 0 10 0 a5 5 0 1 0 -10 0zM1334.83 853.95 a5 5 0 1 0 10 0 a5 5 0 1 0 -10 0zM1291.52 878.95 a5 5 0 1 0 10 0 a5 5 0 1 0 -10 0zM1334.83 103.95 a5 5 0 1 0 10 0 a5 5 0 1 0 -10 0zM1378.13 128.95 a5 5 0 1 0 10 0 a5 5 0 1 0 -10 0zM1378.13 178.95 a5 5 0 1 0 10 0 a5 5 0 1 0 -10 0zM1334.83 203.95 a5 5 0 1 0 10 0 a5 5 0 1 0 -10 0zM1291.52 178.95 a5 5 0 1 0 10 0 a5 5 0 1 0 -10 0zM1291.52 128.95 a5 5 0 1 0 10 0 a5 5 0 1 0 -10 0zM1421.43 203.95 a5 5 0 1 0 10 0 a5 5 0 1 0 -10 0zM1421.43 253.95 a5 5 0 1 0 10 0 a5 5 0 1 0 -10 0zM1378.13 278.95 a5 5 0 1 0 10 0 a5 5 0 1 0 -10 0zM1334.83 253.95 a5 5 0 1 0 10 0 a5 5 0 1 0 -10 0zM1378.13 328.95 a5 5 0 1 0 10 0 a5 5 0 1 0 -10 0zM1421.43 353.95 a5 5 0 1 0 10 0 a5 5 0 1 0 -10 0zM1421.43 403.95 a5 5 0 1 0 10 0 a5 5 0 1 0 -10 0zM1378.13 428.95 a5 5 0 1 0 10 0 a5 5 0 1 0 -10 0zM1378.13 578.95 a5 5 0 1 0 10 0 a5 5 0 1 0 -10 0zM1378.13 628.95 a5 5 0 1 0 10 0 a5 5 0 1 0 -10 0zM1334.83 653.95 a5 5 0 1 0 10 0 a5 5 0 1 0 -10 0zM1291.52 628.95 a5 5 0 1 0 10 0 a5 5 0 1 0 -10 0zM1378.13 878.95 a5 5 0 1 0 10 0 a5 5 0 1 0 -10 0zM1378.13 928.95 a5 5 0 1 0 10 0 a5 5 0 1 0 -10 0zM1334.83 953.95 a5 5 0 1 0 10 0 a5 5 0 1 0 -10 0zM1291.52 928.95 a5 5 0 1 0 10 0 a5 5 0 1 0 -10 0zM1421.43 703.95 a5 5 0 1 0 10 0 a5 5 0 1 0 -10 0zM1464.73 728.95 a5 5 0 1 0 10 0 a5 5 0 1 0 -10 0zM1464.73 778.95 a5 5 0 1 0 10 0 a5 5 0 1 0 -10 0zM1421.43 803.95 a5 5 0 1 0 10 0 a5 5 0 1 0 -10 0zM1378.13 778.95 a5 5 0 1 0 10 0 a5 5 0 1 0 -10 0zM1378.13 728.95 a5 5 0 1 0 10 0 a5 5 0 1 0 -10 0zM1508.04 803.95 a5 5 0 1 0 10 0 a5 5 0 1 0 -10 0zM1508.04 853.95 a5 5 0 1 0 10 0 a5 5 0 1 0 -10 0zM1464.73 878.95 a5 5 0 1 0 10 0 a5 5 0 1 0 -10 0zM1421.43 853.95 a5 5 0 1 0 10 0 a5 5 0 1 0 -10 0z" fill="rgba(128, 162, 162, 0.57)"></path><path d="M56.52 126.88L86.83 144.38L86.83 179.38L56.52 196.88L26.21 179.38L26.21 144.38zM26.21 284.38L56.52 301.88L56.52 336.88L26.21 354.38L-4.1 336.88L-4.1 301.88zM26.21 389.38L56.52 406.88L56.52 441.88L26.21 459.38L-4.1 441.88L-4.1 406.88zM56.52 441.88L86.83 459.38L86.83 494.38L56.52 511.88L26.21 494.38L26.21 459.38zM26.21 599.38L56.52 616.88L56.52 651.88L26.21 669.38L-4.1 651.88L-4.1 616.88zM56.52 651.88L86.83 669.38L86.83 704.38L56.52 721.88L26.21 704.38L26.21 669.38zM117.15 21.88L147.46 39.38L147.46 74.38L117.15 91.88L86.83 74.38L86.83 39.38zM117.15 441.88L147.46 459.38L147.46 494.38L117.15 511.88L86.83 494.38L86.83 459.38zM117.15 651.88L147.46 669.38L147.46 704.38L117.15 721.88L86.83 704.38L86.83 669.38zM86.83 809.38L117.15 826.88L117.15 861.88L86.83 879.38L56.52 861.88L56.52 826.88zM117.15 966.88L147.46 984.38L147.46 1019.38L117.15 1036.88L86.83 1019.38L86.83 984.38zM147.46 74.38L177.77 91.88L177.77 126.88L147.46 144.38L117.15 126.88L117.15 91.88zM177.77 126.88L208.08 144.38L208.08 179.38L177.77 196.88L147.46 179.38L147.46 144.38zM177.77 231.88L208.08 249.38L208.08 284.38L177.77 301.88L147.46 284.38L147.46 249.38zM177.77 336.88L208.08 354.38L208.08 389.38L177.77 406.88L147.46 389.38L147.46 354.38zM177.77 546.88L208.08 564.38L208.08 599.38L177.77 616.88L147.46 599.38L147.46 564.38zM147.46 599.38L177.77 616.88L177.77 651.88L147.46 669.38L117.15 651.88L117.15 616.88zM147.46 704.38L177.77 721.88L177.77 756.88L147.46 774.38L117.15 756.88L117.15 721.88zM177.77 861.88L208.08 879.38L208.08 914.38L177.77 931.88L147.46 914.38L147.46 879.38zM147.46 914.38L177.77 931.88L177.77 966.88L147.46 984.38L117.15 966.88L117.15 931.88zM208.08 -30.62L238.39 -13.12L238.39 21.88L208.08 39.38L177.77 21.88L177.77 -13.12zM238.39 546.88L268.7 564.38L268.7 599.38L238.39 616.88L208.08 599.38L208.08 564.38zM208.08 599.38L238.39 616.88L238.39 651.88L208.08 669.38L177.77 651.88L177.77 616.88zM208.08 704.38L238.39 721.88L238.39 756.88L208.08 774.38L177.77 756.88L177.77 721.88zM208.08 914.38L238.39 931.88L238.39 966.88L208.08 984.38L177.77 966.88L177.77 931.88zM238.39 966.88L268.7 984.38L268.7 1019.38L238.39 1036.88L208.08 1019.38L208.08 984.38zM268.7 704.38L299.02 721.88L299.02 756.88L268.7 774.38L238.39 756.88L238.39 721.88zM359.64 21.88L389.95 39.38L389.95 74.38L359.64 91.88L329.33 74.38L329.33 39.38zM329.33 74.38L359.64 91.88L359.64 126.88L329.33 144.38L299.02 126.88L299.02 91.88zM329.33 494.38L359.64 511.88L359.64 546.88L329.33 564.38L299.02 546.88L299.02 511.88zM359.64 861.88L389.95 879.38L389.95 914.38L359.64 931.88L329.33 914.38L329.33 879.38zM420.26 21.88L450.57 39.38L450.57 74.38L420.26 91.88L389.95 74.38L389.95 39.38zM389.95 599.38L420.26 616.88L420.26 651.88L389.95 669.38L359.64 651.88L359.64 616.88zM480.89 126.88L511.2 144.38L511.2 179.38L480.89 196.88L450.57 179.38L450.57 144.38zM450.57 179.38L480.89 196.88L480.89 231.88L450.57 249.38L420.26 231.88L420.26 196.88zM450.57 284.38L480.89 301.88L480.89 336.88L450.57 354.38L420.26 336.88L420.26 301.88zM480.89 441.88L511.2 459.38L511.2 494.38L480.89 511.88L450.57 494.38L450.57 459.38zM450.57 494.38L480.89 511.88L480.89 546.88L450.57 564.38L420.26 546.88L420.26 511.88zM450.57 704.38L480.89 721.88L480.89 756.88L450.57 774.38L420.26 756.88L420.26 721.88zM450.57 809.38L480.89 826.88L480.89 861.88L450.57 879.38L420.26 861.88L420.26 826.88zM480.89 861.88L511.2 879.38L511.2 914.38L480.89 931.88L450.57 914.38L450.57 879.38zM450.57 914.38L480.89 931.88L480.89 966.88L450.57 984.38L420.26 966.88L420.26 931.88zM511.2 -30.62L541.51 -13.12L541.51 21.88L511.2 39.38L480.89 21.88L480.89 -13.12zM541.51 546.88L571.82 564.38L571.82 599.38L541.51 616.88L511.2 599.38L511.2 564.38zM511.2 704.38L541.51 721.88L541.51 756.88L511.2 774.38L480.89 756.88L480.89 721.88zM571.82 -30.62L602.13 -13.12L602.13 21.88L571.82 39.38L541.51 21.88L541.51 -13.12zM602.13 231.88L632.44 249.38L632.44 284.38L602.13 301.88L571.82 284.38L571.82 249.38zM602.13 441.88L632.44 459.38L632.44 494.38L602.13 511.88L571.82 494.38L571.82 459.38zM571.82 809.38L602.13 826.88L602.13 861.88L571.82 879.38L541.51 861.88L541.51 826.88zM602.13 861.88L632.44 879.38L632.44 914.38L602.13 931.88L571.82 914.38L571.82 879.38zM632.45 -30.62L662.76 -13.12L662.76 21.88L632.45 39.38L602.13 21.88L602.13 -13.12zM662.76 21.88L693.07 39.38L693.07 74.38L662.76 91.88L632.45 74.38L632.45 39.38zM632.45 74.38L662.76 91.88L662.76 126.88L632.45 144.38L602.13 126.88L602.13 91.88zM632.45 284.38L662.76 301.88L662.76 336.88L632.45 354.38L602.13 336.88L602.13 301.88zM662.76 651.88L693.07 669.38L693.07 704.38L662.76 721.88L632.45 704.38L632.45 669.38zM693.07 74.38L723.38 91.88L723.38 126.88L693.07 144.38L662.76 126.88L662.76 91.88zM693.07 389.38L723.38 406.88L723.38 441.88L693.07 459.38L662.76 441.88L662.76 406.88zM693.07 494.38L723.38 511.88L723.38 546.88L693.07 564.38L662.76 546.88L662.76 511.88zM723.38 546.88L753.69 564.38L753.69 599.38L723.38 616.88L693.07 599.38L693.07 564.38zM723.38 651.88L753.69 669.38L753.69 704.38L723.38 721.88L693.07 704.38L693.07 669.38zM693.07 704.38L723.38 721.88L723.38 756.88L693.07 774.38L662.76 756.88L662.76 721.88zM693.07 914.38L723.38 931.88L723.38 966.88L693.07 984.38L662.76 966.88L662.76 931.88zM784 336.88L814.32 354.38L814.32 389.38L784 406.88L753.69 389.38L753.69 354.38zM753.69 494.38L784 511.88L784 546.88L753.69 564.38L723.38 546.88L723.38 511.88zM784 546.88L814.32 564.38L814.32 599.38L784 616.88L753.69 599.38L753.69 564.38zM753.69 599.38L784 616.88L784 651.88L753.69 669.38L723.38 651.88L723.38 616.88zM753.69 809.38L784 826.88L784 861.88L753.69 879.38L723.38 861.88L723.38 826.88zM784 861.88L814.32 879.38L814.32 914.38L784 931.88L753.69 914.38L753.69 879.38zM844.63 21.88L874.94 39.38L874.94 74.38L844.63 91.88L814.32 74.38L814.32 39.38zM814.32 389.38L844.63 406.88L844.63 441.88L814.32 459.38L784 441.88L784 406.88zM814.32 494.38L844.63 511.88L844.63 546.88L814.32 564.38L784 546.88L784 511.88zM814.32 809.38L844.63 826.88L844.63 861.88L814.32 879.38L784 861.88L784 826.88zM874.94 -30.62L905.25 -13.12L905.25 21.88L874.94 39.38L844.63 21.88L844.63 -13.12zM874.94 179.38L905.25 196.88L905.25 231.88L874.94 249.38L844.63 231.88L844.63 196.88zM905.25 231.88L935.56 249.38L935.56 284.38L905.25 301.88L874.94 284.38L874.94 249.38zM905.25 546.88L935.56 564.38L935.56 599.38L905.25 616.88L874.94 599.38L874.94 564.38zM905.25 756.88L935.56 774.38L935.56 809.38L905.25 826.88L874.94 809.38L874.94 774.38zM905.25 861.88L935.56 879.38L935.56 914.38L905.25 931.88L874.94 914.38L874.94 879.38zM935.56 179.38L965.87 196.88L965.87 231.88L935.56 249.38L905.25 231.88L905.25 196.88zM935.56 284.38L965.87 301.88L965.87 336.88L935.56 354.38L905.25 336.88L905.25 301.88zM935.56 494.38L965.87 511.88L965.87 546.88L935.56 564.38L905.25 546.88L905.25 511.88zM965.87 756.88L996.19 774.38L996.19 809.38L965.87 826.88L935.56 809.38L935.56 774.38zM996.19 -30.62L1026.5 -13.12L1026.5 21.88L996.19 39.38L965.87 21.88L965.87 -13.12zM996.19 389.38L1026.5 406.88L1026.5 441.88L996.19 459.38L965.87 441.88L965.87 406.88zM996.19 914.38L1026.5 931.88L1026.5 966.88L996.19 984.38L965.87 966.88L965.87 931.88zM1026.5 966.88L1056.81 984.38L1056.81 1019.38L1026.5 1036.88L996.19 1019.38L996.19 984.38zM1087.12 126.88L1117.43 144.38L1117.43 179.38L1087.12 196.88L1056.81 179.38L1056.81 144.38zM1056.81 284.38L1087.12 301.88L1087.12 336.88L1056.81 354.38L1026.5 336.88L1026.5 301.88zM1056.81 389.38L1087.12 406.88L1087.12 441.88L1056.81 459.38L1026.5 441.88L1026.5 406.88zM1056.81 494.38L1087.12 511.88L1087.12 546.88L1056.81 564.38L1026.5 546.88L1026.5 511.88zM1056.81 809.38L1087.12 826.88L1087.12 861.88L1056.81 879.38L1026.5 861.88L1026.5 826.88zM1087.12 966.88L1117.43 984.38L1117.43 1019.38L1087.12 1036.88L1056.81 1019.38L1056.81 984.38zM1117.43 74.38L1147.74 91.88L1147.74 126.88L1117.43 144.38L1087.12 126.88L1087.12 91.88zM1117.43 179.38L1147.74 196.88L1147.74 231.88L1117.43 249.38L1087.12 231.88L1087.12 196.88zM1147.74 441.88L1178.06 459.38L1178.06 494.38L1147.74 511.88L1117.43 494.38L1117.43 459.38zM1147.74 651.88L1178.06 669.38L1178.06 704.38L1147.74 721.88L1117.43 704.38L1117.43 669.38zM1178.06 -30.62L1208.37 -13.12L1208.37 21.88L1178.06 39.38L1147.74 21.88L1147.74 -13.12zM1178.06 389.38L1208.37 406.88L1208.37 441.88L1178.06 459.38L1147.74 441.88L1147.74 406.88zM1178.06 494.38L1208.37 511.88L1208.37 546.88L1178.06 564.38L1147.74 546.88L1147.74 511.88zM1178.06 704.38L1208.37 721.88L1208.37 756.88L1178.06 774.38L1147.74 756.88L1147.74 721.88zM1208.37 756.88L1238.68 774.38L1238.68 809.38L1208.37 826.88L1178.06 809.38L1178.06 774.38zM1178.06 809.38L1208.37 826.88L1208.37 861.88L1178.06 879.38L1147.74 861.88L1147.74 826.88zM1208.37 861.88L1238.68 879.38L1238.68 914.38L1208.37 931.88L1178.06 914.38L1178.06 879.38zM1178.06 914.38L1208.37 931.88L1208.37 966.88L1178.06 984.38L1147.74 966.88L1147.74 931.88zM1268.99 21.88L1299.3 39.38L1299.3 74.38L1268.99 91.88L1238.68 74.38L1238.68 39.38zM1268.99 441.88L1299.3 459.38L1299.3 494.38L1268.99 511.88L1238.68 494.38L1238.68 459.38zM1238.68 599.38L1268.99 616.88L1268.99 651.88L1238.68 669.38L1208.37 651.88L1208.37 616.88zM1238.68 809.38L1268.99 826.88L1268.99 861.88L1238.68 879.38L1208.37 861.88L1208.37 826.88zM1238.68 914.38L1268.99 931.88L1268.99 966.88L1238.68 984.38L1208.37 966.88L1208.37 931.88zM1299.3 74.38L1329.62 91.88L1329.62 126.88L1299.3 144.38L1268.99 126.88L1268.99 91.88zM1329.62 336.88L1359.93 354.38L1359.93 389.38L1329.62 406.88L1299.3 389.38L1299.3 354.38zM1299.3 389.38L1329.62 406.88L1329.62 441.88L1299.3 459.38L1268.99 441.88L1268.99 406.88zM1299.3 494.38L1329.62 511.88L1329.62 546.88L1299.3 564.38L1268.99 546.88L1268.99 511.88zM1329.62 546.88L1359.93 564.38L1359.93 599.38L1329.62 616.88L1299.3 599.38L1299.3 564.38zM1329.62 651.88L1359.93 669.38L1359.93 704.38L1329.62 721.88L1299.3 704.38L1299.3 669.38zM1329.62 756.88L1359.93 774.38L1359.93 809.38L1329.62 826.88L1299.3 809.38L1299.3 774.38zM1299.3 809.38L1329.62 826.88L1329.62 861.88L1299.3 879.38L1268.99 861.88L1268.99 826.88zM1390.24 336.88L1420.55 354.38L1420.55 389.38L1390.24 406.88L1359.93 389.38L1359.93 354.38zM1390.24 861.88L1420.55 879.38L1420.55 914.38L1390.24 931.88L1359.93 914.38L1359.93 879.38zM1450.86 21.88L1481.17 39.38L1481.17 74.38L1450.86 91.88L1420.55 74.38L1420.55 39.38zM1420.55 389.38L1450.86 406.88L1450.86 441.88L1420.55 459.38L1390.24 441.88L1390.24 406.88zM1450.86 546.88L1481.17 564.38L1481.17 599.38L1450.86 616.88L1420.55 599.38L1420.55 564.38zM1450.86 966.88L1481.17 984.38L1481.17 1019.38L1450.86 1036.88L1420.55 1019.38L1420.55 984.38z" stroke="rgba(6, 132, 136, 0.45)" stroke-width="2"></path><path d="M53.02 126.88 a3.5 3.5 0 1 0 7 0 a3.5 3.5 0 1 0 -7 0zM83.33 144.38 a3.5 3.5 0 1 0 7 0 a3.5 3.5 0 1 0 -7 0zM83.33 179.38 a3.5 3.5 0 1 0 7 0 a3.5 3.5 0 1 0 -7 0zM53.02 196.88 a3.5 3.5 0 1 0 7 0 a3.5 3.5 0 1 0 -7 0zM22.71 179.38 a3.5 3.5 0 1 0 7 0 a3.5 3.5 0 1 0 -7 0zM22.71 144.38 a3.5 3.5 0 1 0 7 0 a3.5 3.5 0 1 0 -7 0zM22.71 284.38 a3.5 3.5 0 1 0 7 0 a3.5 3.5 0 1 0 -7 0zM53.02 301.88 a3.5 3.5 0 1 0 7 0 a3.5 3.5 0 1 0 -7 0zM53.02 336.88 a3.5 3.5 0 1 0 7 0 a3.5 3.5 0 1 0 -7 0zM22.71 354.38 a3.5 3.5 0 1 0 7 0 a3.5 3.5 0 1 0 -7 0zM-7.6 336.88 a3.5 3.5 0 1 0 7 0 a3.5 3.5 0 1 0 -7 0zM-7.6 301.88 a3.5 3.5 0 1 0 7 0 a3.5 3.5 0 1 0 -7 0zM22.71 389.38 a3.5 3.5 0 1 0 7 0 a3.5 3.5 0 1 0 -7 0zM53.02 406.88 a3.5 3.5 0 1 0 7 0 a3.5 3.5 0 1 0 -7 0zM53.02 441.88 a3.5 3.5 0 1 0 7 0 a3.5 3.5 0 1 0 -7 0zM22.71 459.38 a3.5 3.5 0 1 0 7 0 a3.5 3.5 0 1 0 -7 0zM-7.6 441.88 a3.5 3.5 0 1 0 7 0 a3.5 3.5 0 1 0 -7 0zM-7.6 406.88 a3.5 3.5 0 1 0 7 0 a3.5 3.5 0 1 0 -7 0zM83.33 459.38 a3.5 3.5 0 1 0 7 0 a3.5 3.5 0 1 0 -7 0zM83.33 494.38 a3.5 3.5 0 1 0 7 0 a3.5 3.5 0 1 0 -7 0zM53.02 511.88 a3.5 3.5 0 1 0 7 0 a3.5 3.5 0 1 0 -7 0zM22.71 494.38 a3.5 3.5 0 1 0 7 0 a3.5 3.5 0 1 0 -7 0zM22.71 599.38 a3.5 3.5 0 1 0 7 0 a3.5 3.5 0 1 0 -7 0zM53.02 616.88 a3.5 3.5 0 1 0 7 0 a3.5 3.5 0 1 0 -7 0zM53.02 651.88 a3.5 3.5 0 1 0 7 0 a3.5 3.5 0 1 0 -7 0zM22.71 669.38 a3.5 3.5 0 1 0 7 0 a3.5 3.5 0 1 0 -7 0zM-7.6 651.88 a3.5 3.5 0 1 0 7 0 a3.5 3.5 0 1 0 -7 0zM-7.6 616.88 a3.5 3.5 0 1 0 7 0 a3.5 3.5 0 1 0 -7 0zM83.33 669.38 a3.5 3.5 0 1 0 7 0 a3.5 3.5 0 1 0 -7 0zM83.33 704.38 a3.5 3.5 0 1 0 7 0 a3.5 3.5 0 1 0 -7 0zM53.02 721.88 a3.5 3.5 0 1 0 7 0 a3.5 3.5 0 1 0 -7 0zM22.71 704.38 a3.5 3.5 0 1 0 7 0 a3.5 3.5 0 1 0 -7 0zM113.65 21.88 a3.5 3.5 0 1 0 7 0 a3.5 3.5 0 1 0 -7 0zM143.96 39.38 a3.5 3.5 0 1 0 7 0 a3.5 3.5 0 1 0 -7 0zM143.96 74.38 a3.5 3.5 0 1 0 7 0 a3.5 3.5 0 1 0 -7 0zM113.65 91.88 a3.5 3.5 0 1 0 7 0 a3.5 3.5 0 1 0 -7 0zM83.33 74.38 a3.5 3.5 0 1 0 7 0 a3.5 3.5 0 1 0 -7 0zM83.33 39.38 a3.5 3.5 0 1 0 7 0 a3.5 3.5 0 1 0 -7 0zM113.65 441.88 a3.5 3.5 0 1 0 7 0 a3.5 3.5 0 1 0 -7 0zM143.96 459.38 a3.5 3.5 0 1 0 7 0 a3.5 3.5 0 1 0 -7 0zM143.96 494.38 a3.5 3.5 0 1 0 7 0 a3.5 3.5 0 1 0 -7 0zM113.65 511.88 a3.5 3.5 0 1 0 7 0 a3.5 3.5 0 1 0 -7 0zM113.65 651.88 a3.5 3.5 0 1 0 7 0 a3.5 3.5 0 1 0 -7 0zM143.96 669.38 a3.5 3.5 0 1 0 7 0 a3.5 3.5 0 1 0 -7 0zM143.96 704.38 a3.5 3.5 0 1 0 7 0 a3.5 3.5 0 1 0 -7 0zM113.65 721.88 a3.5 3.5 0 1 0 7 0 a3.5 3.5 0 1 0 -7 0zM83.33 809.38 a3.5 3.5 0 1 0 7 0 a3.5 3.5 0 1 0 -7 0zM113.65 826.88 a3.5 3.5 0 1 0 7 0 a3.5 3.5 0 1 0 -7 0zM113.65 861.88 a3.5 3.5 0 1 0 7 0 a3.5 3.5 0 1 0 -7 0zM83.33 879.38 a3.5 3.5 0 1 0 7 0 a3.5 3.5 0 1 0 -7 0zM53.02 861.88 a3.5 3.5 0 1 0 7 0 a3.5 3.5 0 1 0 -7 0zM53.02 826.88 a3.5 3.5 0 1 0 7 0 a3.5 3.5 0 1 0 -7 0zM113.65 966.88 a3.5 3.5 0 1 0 7 0 a3.5 3.5 0 1 0 -7 0zM143.96 984.38 a3.5 3.5 0 1 0 7 0 a3.5 3.5 0 1 0 -7 0zM143.96 1019.38 a3.5 3.5 0 1 0 7 0 a3.5 3.5 0 1 0 -7 0zM113.65 1036.88 a3.5 3.5 0 1 0 7 0 a3.5 3.5 0 1 0 -7 0zM83.33 1019.38 a3.5 3.5 0 1 0 7 0 a3.5 3.5 0 1 0 -7 0zM83.33 984.38 a3.5 3.5 0 1 0 7 0 a3.5 3.5 0 1 0 -7 0zM174.27 91.88 a3.5 3.5 0 1 0 7 0 a3.5 3.5 0 1 0 -7 0zM174.27 126.88 a3.5 3.5 0 1 0 7 0 a3.5 3.5 0 1 0 -7 0zM143.96 144.38 a3.5 3.5 0 1 0 7 0 a3.5 3.5 0 1 0 -7 0zM113.65 126.88 a3.5 3.5 0 1 0 7 0 a3.5 3.5 0 1 0 -7 0zM204.58 144.38 a3.5 3.5 0 1 0 7 0 a3.5 3.5 0 1 0 -7 0zM204.58 179.38 a3.5 3.5 0 1 0 7 0 a3.5 3.5 0 1 0 -7 0zM174.27 196.88 a3.5 3.5 0 1 0 7 0 a3.5 3.5 0 1 0 -7 0zM143.96 179.38 a3.5 3.5 0 1 0 7 0 a3.5 3.5 0 1 0 -7 0zM174.27 231.88 a3.5 3.5 0 1 0 7 0 a3.5 3.5 0 1 0 -7 0zM204.58 249.38 a3.5 3.5 0 1 0 7 0 a3.5 3.5 0 1 0 -7 0zM204.58 284.38 a3.5 3.5 0 1 0 7 0 a3.5 3.5 0 1 0 -7 0zM174.27 301.88 a3.5 3.5 0 1 0 7 0 a3.5 3.5 0 1 0 -7 0zM143.96 284.38 a3.5 3.5 0 1 0 7 0 a3.5 3.5 0 1 0 -7 0zM143.96 249.38 a3.5 3.5 0 1 0 7 0 a3.5 3.5 0 1 0 -7 0zM174.27 336.88 a3.5 3.5 0 1 0 7 0 a3.5 3.5 0 1 0 -7 0zM204.58 354.38 a3.5 3.5 0 1 0 7 0 a3.5 3.5 0 1 0 -7 0zM204.58 389.38 a3.5 3.5 0 1 0 7 0 a3.5 3.5 0 1 0 -7 0zM174.27 406.88 a3.5 3.5 0 1 0 7 0 a3.5 3.5 0 1 0 -7 0zM143.96 389.38 a3.5 3.5 0 1 0 7 0 a3.5 3.5 0 1 0 -7 0zM143.96 354.38 a3.5 3.5 0 1 0 7 0 a3.5 3.5 0 1 0 -7 0zM174.27 546.88 a3.5 3.5 0 1 0 7 0 a3.5 3.5 0 1 0 -7 0zM204.58 564.38 a3.5 3.5 0 1 0 7 0 a3.5 3.5 0 1 0 -7 0zM204.58 599.38 a3.5 3.5 0 1 0 7 0 a3.5 3.5 0 1 0 -7 0zM174.27 616.88 a3.5 3.5 0 1 0 7 0 a3.5 3.5 0 1 0 -7 0zM143.96 599.38 a3.5 3.5 0 1 0 7 0 a3.5 3.5 0 1 0 -7 0zM143.96 564.38 a3.5 3.5 0 1 0 7 0 a3.5 3.5 0 1 0 -7 0zM174.27 651.88 a3.5 3.5 0 1 0 7 0 a3.5 3.5 0 1 0 -7 0zM113.65 616.88 a3.5 3.5 0 1 0 7 0 a3.5 3.5 0 1 0 -7 0zM174.27 721.88 a3.5 3.5 0 1 0 7 0 a3.5 3.5 0 1 0 -7 0zM174.27 756.88 a3.5 3.5 0 1 0 7 0 a3.5 3.5 0 1 0 -7 0zM143.96 774.38 a3.5 3.5 0 1 0 7 0 a3.5 3.5 0 1 0 -7 0zM113.65 756.88 a3.5 3.5 0 1 0 7 0 a3.5 3.5 0 1 0 -7 0zM174.27 861.88 a3.5 3.5 0 1 0 7 0 a3.5 3.5 0 1 0 -7 0zM204.58 879.38 a3.5 3.5 0 1 0 7 0 a3.5 3.5 0 1 0 -7 0zM204.58 914.38 a3.5 3.5 0 1 0 7 0 a3.5 3.5 0 1 0 -7 0zM174.27 931.88 a3.5 3.5 0 1 0 7 0 a3.5 3.5 0 1 0 -7 0zM143.96 914.38 a3.5 3.5 0 1 0 7 0 a3.5 3.5 0 1 0 -7 0zM143.96 879.38 a3.5 3.5 0 1 0 7 0 a3.5 3.5 0 1 0 -7 0zM174.27 966.88 a3.5 3.5 0 1 0 7 0 a3.5 3.5 0 1 0 -7 0zM113.65 931.88 a3.5 3.5 0 1 0 7 0 a3.5 3.5 0 1 0 -7 0zM204.58 -30.62 a3.5 3.5 0 1 0 7 0 a3.5 3.5 0 1 0 -7 0zM234.89 -13.12 a3.5 3.5 0 1 0 7 0 a3.5 3.5 0 1 0 -7 0zM234.89 21.88 a3.5 3.5 0 1 0 7 0 a3.5 3.5 0 1 0 -7 0zM204.58 39.38 a3.5 3.5 0 1 0 7 0 a3.5 3.5 0 1 0 -7 0zM174.27 21.88 a3.5 3.5 0 1 0 7 0 a3.5 3.5 0 1 0 -7 0zM174.27 -13.12 a3.5 3.5 0 1 0 7 0 a3.5 3.5 0 1 0 -7 0zM234.89 546.88 a3.5 3.5 0 1 0 7 0 a3.5 3.5 0 1 0 -7 0zM265.2 564.38 a3.5 3.5 0 1 0 7 0 a3.5 3.5 0 1 0 -7 0zM265.2 599.38 a3.5 3.5 0 1 0 7 0 a3.5 3.5 0 1 0 -7 0zM234.89 616.88 a3.5 3.5 0 1 0 7 0 a3.5 3.5 0 1 0 -7 0zM234.89 651.88 a3.5 3.5 0 1 0 7 0 a3.5 3.5 0 1 0 -7 0zM204.58 669.38 a3.5 3.5 0 1 0 7 0 a3.5 3.5 0 1 0 -7 0zM204.58 704.38 a3.5 3.5 0 1 0 7 0 a3.5 3.5 0 1 0 -7 0zM234.89 721.88 a3.5 3.5 0 1 0 7 0 a3.5 3.5 0 1 0 -7 0zM234.89 756.88 a3.5 3.5 0 1 0 7 0 a3.5 3.5 0 1 0 -7 0zM204.58 774.38 a3.5 3.5 0 1 0 7 0 a3.5 3.5 0 1 0 -7 0zM234.89 931.88 a3.5 3.5 0 1 0 7 0 a3.5 3.5 0 1 0 -7 0zM234.89 966.88 a3.5 3.5 0 1 0 7 0 a3.5 3.5 0 1 0 -7 0zM204.58 984.38 a3.5 3.5 0 1 0 7 0 a3.5 3.5 0 1 0 -7 0zM265.2 984.38 a3.5 3.5 0 1 0 7 0 a3.5 3.5 0 1 0 -7 0zM265.2 1019.38 a3.5 3.5 0 1 0 7 0 a3.5 3.5 0 1 0 -7 0zM234.89 1036.88 a3.5 3.5 0 1 0 7 0 a3.5 3.5 0 1 0 -7 0zM204.58 1019.38 a3.5 3.5 0 1 0 7 0 a3.5 3.5 0 1 0 -7 0zM265.2 704.38 a3.5 3.5 0 1 0 7 0 a3.5 3.5 0 1 0 -7 0zM295.52 721.88 a3.5 3.5 0 1 0 7 0 a3.5 3.5 0 1 0 -7 0zM295.52 756.88 a3.5 3.5 0 1 0 7 0 a3.5 3.5 0 1 0 -7 0zM265.2 774.38 a3.5 3.5 0 1 0 7 0 a3.5 3.5 0 1 0 -7 0zM356.14 21.88 a3.5 3.5 0 1 0 7 0 a3.5 3.5 0 1 0 -7 0zM386.45 39.38 a3.5 3.5 0 1 0 7 0 a3.5 3.5 0 1 0 -7 0zM386.45 74.38 a3.5 3.5 0 1 0 7 0 a3.5 3.5 0 1 0 -7 0zM356.14 91.88 a3.5 3.5 0 1 0 7 0 a3.5 3.5 0 1 0 -7 0zM325.83 74.38 a3.5 3.5 0 1 0 7 0 a3.5 3.5 0 1 0 -7 0zM325.83 39.38 a3.5 3.5 0 1 0 7 0 a3.5 3.5 0 1 0 -7 0zM356.14 126.88 a3.5 3.5 0 1 0 7 0 a3.5 3.5 0 1 0 -7 0zM325.83 144.38 a3.5 3.5 0 1 0 7 0 a3.5 3.5 0 1 0 -7 0zM295.52 126.88 a3.5 3.5 0 1 0 7 0 a3.5 3.5 0 1 0 -7 0zM295.52 91.88 a3.5 3.5 0 1 0 7 0 a3.5 3.5 0 1 0 -7 0zM325.83 494.38 a3.5 3.5 0 1 0 7 0 a3.5 3.5 0 1 0 -7 0zM356.14 511.88 a3.5 3.5 0 1 0 7 0 a3.5 3.5 0 1 0 -7 0zM356.14 546.88 a3.5 3.5 0 1 0 7 0 a3.5 3.5 0 1 0 -7 0zM325.83 564.38 a3.5 3.5 0 1 0 7 0 a3.5 3.5 0 1 0 -7 0zM295.52 546.88 a3.5 3.5 0 1 0 7 0 a3.5 3.5 0 1 0 -7 0zM295.52 511.88 a3.5 3.5 0 1 0 7 0 a3.5 3.5 0 1 0 -7 0zM356.14 861.88 a3.5 3.5 0 1 0 7 0 a3.5 3.5 0 1 0 -7 0zM386.45 879.38 a3.5 3.5 0 1 0 7 0 a3.5 3.5 0 1 0 -7 0zM386.45 914.38 a3.5 3.5 0 1 0 7 0 a3.5 3.5 0 1 0 -7 0zM356.14 931.88 a3.5 3.5 0 1 0 7 0 a3.5 3.5 0 1 0 -7 0zM325.83 914.38 a3.5 3.5 0 1 0 7 0 a3.5 3.5 0 1 0 -7 0zM325.83 879.38 a3.5 3.5 0 1 0 7 0 a3.5 3.5 0 1 0 -7 0zM416.76 21.88 a3.5 3.5 0 1 0 7 0 a3.5 3.5 0 1 0 -7 0zM447.07 39.38 a3.5 3.5 0 1 0 7 0 a3.5 3.5 0 1 0 -7 0zM447.07 74.38 a3.5 3.5 0 1 0 7 0 a3.5 3.5 0 1 0 -7 0zM416.76 91.88 a3.5 3.5 0 1 0 7 0 a3.5 3.5 0 1 0 -7 0zM386.45 599.38 a3.5 3.5 0 1 0 7 0 a3.5 3.5 0 1 0 -7 0zM416.76 616.88 a3.5 3.5 0 1 0 7 0 a3.5 3.5 0 1 0 -7 0zM416.76 651.88 a3.5 3.5 0 1 0 7 0 a3.5 3.5 0 1 0 -7 0zM386.45 669.38 a3.5 3.5 0 1 0 7 0 a3.5 3.5 0 1 0 -7 0zM356.14 651.88 a3.5 3.5 0 1 0 7 0 a3.5 3.5 0 1 0 -7 0zM356.14 616.88 a3.5 3.5 0 1 0 7 0 a3.5 3.5 0 1 0 -7 0zM477.39 126.88 a3.5 3.5 0 1 0 7 0 a3.5 3.5 0 1 0 -7 0zM507.7 144.38 a3.5 3.5 0 1 0 7 0 a3.5 3.5 0 1 0 -7 0zM507.7 179.38 a3.5 3.5 0 1 0 7 0 a3.5 3.5 0 1 0 -7 0zM477.39 196.88 a3.5 3.5 0 1 0 7 0 a3.5 3.5 0 1 0 -7 0zM447.07 179.38 a3.5 3.5 0 1 0 7 0 a3.5 3.5 0 1 0 -7 0zM447.07 144.38 a3.5 3.5 0 1 0 7 0 a3.5 3.5 0 1 0 -7 0zM477.39 231.88 a3.5 3.5 0 1 0 7 0 a3.5 3.5 0 1 0 -7 0zM447.07 249.38 a3.5 3.5 0 1 0 7 0 a3.5 3.5 0 1 0 -7 0zM416.76 231.88 a3.5 3.5 0 1 0 7 0 a3.5 3.5 0 1 0 -7 0zM416.76 196.88 a3.5 3.5 0 1 0 7 0 a3.5 3.5 0 1 0 -7 0zM447.07 284.38 a3.5 3.5 0 1 0 7 0 a3.5 3.5 0 1 0 -7 0zM477.39 301.88 a3.5 3.5 0 1 0 7 0 a3.5 3.5 0 1 0 -7 0zM477.39 336.88 a3.5 3.5 0 1 0 7 0 a3.5 3.5 0 1 0 -7 0zM447.07 354.38 a3.5 3.5 0 1 0 7 0 a3.5 3.5 0 1 0 -7 0zM416.76 336.88 a3.5 3.5 0 1 0 7 0 a3.5 3.5 0 1 0 -7 0zM416.76 301.88 a3.5 3.5 0 1 0 7 0 a3.5 3.5 0 1 0 -7 0zM477.39 441.88 a3.5 3.5 0 1 0 7 0 a3.5 3.5 0 1 0 -7 0zM507.7 459.38 a3.5 3.5 0 1 0 7 0 a3.5 3.5 0 1 0 -7 0zM507.7 494.38 a3.5 3.5 0 1 0 7 0 a3.5 3.5 0 1 0 -7 0zM477.39 511.88 a3.5 3.5 0 1 0 7 0 a3.5 3.5 0 1 0 -7 0zM447.07 494.38 a3.5 3.5 0 1 0 7 0 a3.5 3.5 0 1 0 -7 0zM447.07 459.38 a3.5 3.5 0 1 0 7 0 a3.5 3.5 0 1 0 -7 0zM477.39 546.88 a3.5 3.5 0 1 0 7 0 a3.5 3.5 0 1 0 -7 0zM447.07 564.38 a3.5 3.5 0 1 0 7 0 a3.5 3.5 0 1 0 -7 0zM416.76 546.88 a3.5 3.5 0 1 0 7 0 a3.5 3.5 0 1 0 -7 0zM416.76 511.88 a3.5 3.5 0 1 0 7 0 a3.5 3.5 0 1 0 -7 0zM447.07 704.38 a3.5 3.5 0 1 0 7 0 a3.5 3.5 0 1 0 -7 0zM477.39 721.88 a3.5 3.5 0 1 0 7 0 a3.5 3.5 0 1 0 -7 0zM477.39 756.88 a3.5 3.5 0 1 0 7 0 a3.5 3.5 0 1 0 -7 0zM447.07 774.38 a3.5 3.5 0 1 0 7 0 a3.5 3.5 0 1 0 -7 0zM416.76 756.88 a3.5 3.5 0 1 0 7 0 a3.5 3.5 0 1 0 -7 0zM416.76 721.88 a3.5 3.5 0 1 0 7 0 a3.5 3.5 0 1 0 -7 0zM447.07 809.38 a3.5 3.5 0 1 0 7 0 a3.5 3.5 0 1 0 -7 0zM477.39 826.88 a3.5 3.5 0 1 0 7 0 a3.5 3.5 0 1 0 -7 0zM477.39 861.88 a3.5 3.5 0 1 0 7 0 a3.5 3.5 0 1 0 -7 0zM447.07 879.38 a3.5 3.5 0 1 0 7 0 a3.5 3.5 0 1 0 -7 0zM416.76 861.88 a3.5 3.5 0 1 0 7 0 a3.5 3.5 0 1 0 -7 0zM416.76 826.88 a3.5 3.5 0 1 0 7 0 a3.5 3.5 0 1 0 -7 0zM507.7 879.38 a3.5 3.5 0 1 0 7 0 a3.5 3.5 0 1 0 -7 0zM507.7 914.38 a3.5 3.5 0 1 0 7 0 a3.5 3.5 0 1 0 -7 0zM477.39 931.88 a3.5 3.5 0 1 0 7 0 a3.5 3.5 0 1 0 -7 0zM447.07 914.38 a3.5 3.5 0 1 0 7 0 a3.5 3.5 0 1 0 -7 0zM477.39 966.88 a3.5 3.5 0 1 0 7 0 a3.5 3.5 0 1 0 -7 0zM447.07 984.38 a3.5 3.5 0 1 0 7 0 a3.5 3.5 0 1 0 -7 0zM416.76 966.88 a3.5 3.5 0 1 0 7 0 a3.5 3.5 0 1 0 -7 0zM416.76 931.88 a3.5 3.5 0 1 0 7 0 a3.5 3.5 0 1 0 -7 0zM507.7 -30.62 a3.5 3.5 0 1 0 7 0 a3.5 3.5 0 1 0 -7 0zM538.01 -13.12 a3.5 3.5 0 1 0 7 0 a3.5 3.5 0 1 0 -7 0zM538.01 21.88 a3.5 3.5 0 1 0 7 0 a3.5 3.5 0 1 0 -7 0zM507.7 39.38 a3.5 3.5 0 1 0 7 0 a3.5 3.5 0 1 0 -7 0zM477.39 21.88 a3.5 3.5 0 1 0 7 0 a3.5 3.5 0 1 0 -7 0zM477.39 -13.12 a3.5 3.5 0 1 0 7 0 a3.5 3.5 0 1 0 -7 0zM538.01 546.88 a3.5 3.5 0 1 0 7 0 a3.5 3.5 0 1 0 -7 0zM568.32 564.38 a3.5 3.5 0 1 0 7 0 a3.5 3.5 0 1 0 -7 0zM568.32 599.38 a3.5 3.5 0 1 0 7 0 a3.5 3.5 0 1 0 -7 0zM538.01 616.88 a3.5 3.5 0 1 0 7 0 a3.5 3.5 0 1 0 -7 0zM507.7 599.38 a3.5 3.5 0 1 0 7 0 a3.5 3.5 0 1 0 -7 0zM507.7 564.38 a3.5 3.5 0 1 0 7 0 a3.5 3.5 0 1 0 -7 0zM507.7 704.38 a3.5 3.5 0 1 0 7 0 a3.5 3.5 0 1 0 -7 0zM538.01 721.88 a3.5 3.5 0 1 0 7 0 a3.5 3.5 0 1 0 -7 0zM538.01 756.88 a3.5 3.5 0 1 0 7 0 a3.5 3.5 0 1 0 -7 0zM507.7 774.38 a3.5 3.5 0 1 0 7 0 a3.5 3.5 0 1 0 -7 0zM568.32 -30.62 a3.5 3.5 0 1 0 7 0 a3.5 3.5 0 1 0 -7 0zM598.63 -13.12 a3.5 3.5 0 1 0 7 0 a3.5 3.5 0 1 0 -7 0zM598.63 21.88 a3.5 3.5 0 1 0 7 0 a3.5 3.5 0 1 0 -7 0zM568.32 39.38 a3.5 3.5 0 1 0 7 0 a3.5 3.5 0 1 0 -7 0zM598.63 231.88 a3.5 3.5 0 1 0 7 0 a3.5 3.5 0 1 0 -7 0zM628.94 249.38 a3.5 3.5 0 1 0 7 0 a3.5 3.5 0 1 0 -7 0zM628.94 284.38 a3.5 3.5 0 1 0 7 0 a3.5 3.5 0 1 0 -7 0zM598.63 301.88 a3.5 3.5 0 1 0 7 0 a3.5 3.5 0 1 0 -7 0zM568.32 284.38 a3.5 3.5 0 1 0 7 0 a3.5 3.5 0 1 0 -7 0zM568.32 249.38 a3.5 3.5 0 1 0 7 0 a3.5 3.5 0 1 0 -7 0zM598.63 441.88 a3.5 3.5 0 1 0 7 0 a3.5 3.5 0 1 0 -7 0zM628.94 459.38 a3.5 3.5 0 1 0 7 0 a3.5 3.5 0 1 0 -7 0zM628.94 494.38 a3.5 3.5 0 1 0 7 0 a3.5 3.5 0 1 0 -7 0zM598.63 511.88 a3.5 3.5 0 1 0 7 0 a3.5 3.5 0 1 0 -7 0zM568.32 494.38 a3.5 3.5 0 1 0 7 0 a3.5 3.5 0 1 0 -7 0zM568.32 459.38 a3.5 3.5 0 1 0 7 0 a3.5 3.5 0 1 0 -7 0zM568.32 809.38 a3.5 3.5 0 1 0 7 0 a3.5 3.5 0 1 0 -7 0zM598.63 826.88 a3.5 3.5 0 1 0 7 0 a3.5 3.5 0 1 0 -7 0zM598.63 861.88 a3.5 3.5 0 1 0 7 0 a3.5 3.5 0 1 0 -7 0zM568.32 879.38 a3.5 3.5 0 1 0 7 0 a3.5 3.5 0 1 0 -7 0zM538.01 861.88 a3.5 3.5 0 1 0 7 0 a3.5 3.5 0 1 0 -7 0zM538.01 826.88 a3.5 3.5 0 1 0 7 0 a3.5 3.5 0 1 0 -7 0zM628.94 879.38 a3.5 3.5 0 1 0 7 0 a3.5 3.5 0 1 0 -7 0zM628.94 914.38 a3.5 3.5 0 1 0 7 0 a3.5 3.5 0 1 0 -7 0zM598.63 931.88 a3.5 3.5 0 1 0 7 0 a3.5 3.5 0 1 0 -7 0zM568.32 914.38 a3.5 3.5 0 1 0 7 0 a3.5 3.5 0 1 0 -7 0zM628.95 -30.62 a3.5 3.5 0 1 0 7 0 a3.5 3.5 0 1 0 -7 0zM659.26 -13.12 a3.5 3.5 0 1 0 7 0 a3.5 3.5 0 1 0 -7 0zM659.26 21.88 a3.5 3.5 0 1 0 7 0 a3.5 3.5 0 1 0 -7 0zM628.95 39.38 a3.5 3.5 0 1 0 7 0 a3.5 3.5 0 1 0 -7 0zM689.57 39.38 a3.5 3.5 0 1 0 7 0 a3.5 3.5 0 1 0 -7 0zM689.57 74.38 a3.5 3.5 0 1 0 7 0 a3.5 3.5 0 1 0 -7 0zM659.26 91.88 a3.5 3.5 0 1 0 7 0 a3.5 3.5 0 1 0 -7 0zM628.95 74.38 a3.5 3.5 0 1 0 7 0 a3.5 3.5 0 1 0 -7 0zM659.26 126.88 a3.5 3.5 0 1 0 7 0 a3.5 3.5 0 1 0 -7 0zM628.95 144.38 a3.5 3.5 0 1 0 7 0 a3.5 3.5 0 1 0 -7 0zM598.63 126.88 a3.5 3.5 0 1 0 7 0 a3.5 3.5 0 1 0 -7 0zM598.63 91.88 a3.5 3.5 0 1 0 7 0 a3.5 3.5 0 1 0 -7 0zM628.95 284.38 a3.5 3.5 0 1 0 7 0 a3.5 3.5 0 1 0 -7 0zM659.26 301.88 a3.5 3.5 0 1 0 7 0 a3.5 3.5 0 1 0 -7 0zM659.26 336.88 a3.5 3.5 0 1 0 7 0 a3.5 3.5 0 1 0 -7 0zM628.95 354.38 a3.5 3.5 0 1 0 7 0 a3.5 3.5 0 1 0 -7 0zM598.63 336.88 a3.5 3.5 0 1 0 7 0 a3.5 3.5 0 1 0 -7 0zM659.26 651.88 a3.5 3.5 0 1 0 7 0 a3.5 3.5 0 1 0 -7 0zM689.57 669.38 a3.5 3.5 0 1 0 7 0 a3.5 3.5 0 1 0 -7 0zM689.57 704.38 a3.5 3.5 0 1 0 7 0 a3.5 3.5 0 1 0 -7 0zM659.26 721.88 a3.5 3.5 0 1 0 7 0 a3.5 3.5 0 1 0 -7 0zM628.95 704.38 a3.5 3.5 0 1 0 7 0 a3.5 3.5 0 1 0 -7 0zM628.95 669.38 a3.5 3.5 0 1 0 7 0 a3.5 3.5 0 1 0 -7 0zM719.88 91.88 a3.5 3.5 0 1 0 7 0 a3.5 3.5 0 1 0 -7 0zM719.88 126.88 a3.5 3.5 0 1 0 7 0 a3.5 3.5 0 1 0 -7 0zM689.57 144.38 a3.5 3.5 0 1 0 7 0 a3.5 3.5 0 1 0 -7 0zM689.57 389.38 a3.5 3.5 0 1 0 7 0 a3.5 3.5 0 1 0 -7 0zM719.88 406.88 a3.5 3.5 0 1 0 7 0 a3.5 3.5 0 1 0 -7 0zM719.88 441.88 a3.5 3.5 0 1 0 7 0 a3.5 3.5 0 1 0 -7 0zM689.57 459.38 a3.5 3.5 0 1 0 7 0 a3.5 3.5 0 1 0 -7 0zM659.26 441.88 a3.5 3.5 0 1 0 7 0 a3.5 3.5 0 1 0 -7 0zM659.26 406.88 a3.5 3.5 0 1 0 7 0 a3.5 3.5 0 1 0 -7 0zM689.57 494.38 a3.5 3.5 0 1 0 7 0 a3.5 3.5 0 1 0 -7 0zM719.88 511.88 a3.5 3.5 0 1 0 7 0 a3.5 3.5 0 1 0 -7 0zM719.88 546.88 a3.5 3.5 0 1 0 7 0 a3.5 3.5 0 1 0 -7 0zM689.57 564.38 a3.5 3.5 0 1 0 7 0 a3.5 3.5 0 1 0 -7 0zM659.26 546.88 a3.5 3.5 0 1 0 7 0 a3.5 3.5 0 1 0 -7 0zM659.26 511.88 a3.5 3.5 0 1 0 7 0 a3.5 3.5 0 1 0 -7 0zM750.19 564.38 a3.5 3.5 0 1 0 7 0 a3.5 3.5 0 1 0 -7 0zM750.19 599.38 a3.5 3.5 0 1 0 7 0 a3.5 3.5 0 1 0 -7 0zM719.88 616.88 a3.5 3.5 0 1 0 7 0 a3.5 3.5 0 1 0 -7 0zM689.57 599.38 a3.5 3.5 0 1 0 7 0 a3.5 3.5 0 1 0 -7 0zM719.88 651.88 a3.5 3.5 0 1 0 7 0 a3.5 3.5 0 1 0 -7 0zM750.19 669.38 a3.5 3.5 0 1 0 7 0 a3.5 3.5 0 1 0 -7 0zM750.19 704.38 a3.5 3.5 0 1 0 7 0 a3.5 3.5 0 1 0 -7 0zM719.88 721.88 a3.5 3.5 0 1 0 7 0 a3.5 3.5 0 1 0 -7 0zM719.88 756.88 a3.5 3.5 0 1 0 7 0 a3.5 3.5 0 1 0 -7 0zM689.57 774.38 a3.5 3.5 0 1 0 7 0 a3.5 3.5 0 1 0 -7 0zM659.26 756.88 a3.5 3.5 0 1 0 7 0 a3.5 3.5 0 1 0 -7 0zM689.57 914.38 a3.5 3.5 0 1 0 7 0 a3.5 3.5 0 1 0 -7 0zM719.88 931.88 a3.5 3.5 0 1 0 7 0 a3.5 3.5 0 1 0 -7 0zM719.88 966.88 a3.5 3.5 0 1 0 7 0 a3.5 3.5 0 1 0 -7 0zM689.57 984.38 a3.5 3.5 0 1 0 7 0 a3.5 3.5 0 1 0 -7 0zM659.26 966.88 a3.5 3.5 0 1 0 7 0 a3.5 3.5 0 1 0 -7 0zM659.26 931.88 a3.5 3.5 0 1 0 7 0 a3.5 3.5 0 1 0 -7 0zM780.5 336.88 a3.5 3.5 0 1 0 7 0 a3.5 3.5 0 1 0 -7 0zM810.82 354.38 a3.5 3.5 0 1 0 7 0 a3.5 3.5 0 1 0 -7 0zM810.82 389.38 a3.5 3.5 0 1 0 7 0 a3.5 3.5 0 1 0 -7 0zM780.5 406.88 a3.5 3.5 0 1 0 7 0 a3.5 3.5 0 1 0 -7 0zM750.19 389.38 a3.5 3.5 0 1 0 7 0 a3.5 3.5 0 1 0 -7 0zM750.19 354.38 a3.5 3.5 0 1 0 7 0 a3.5 3.5 0 1 0 -7 0zM750.19 494.38 a3.5 3.5 0 1 0 7 0 a3.5 3.5 0 1 0 -7 0zM780.5 511.88 a3.5 3.5 0 1 0 7 0 a3.5 3.5 0 1 0 -7 0zM780.5 546.88 a3.5 3.5 0 1 0 7 0 a3.5 3.5 0 1 0 -7 0zM810.82 564.38 a3.5 3.5 0 1 0 7 0 a3.5 3.5 0 1 0 -7 0zM810.82 599.38 a3.5 3.5 0 1 0 7 0 a3.5 3.5 0 1 0 -7 0zM780.5 616.88 a3.5 3.5 0 1 0 7 0 a3.5 3.5 0 1 0 -7 0zM780.5 651.88 a3.5 3.5 0 1 0 7 0 a3.5 3.5 0 1 0 -7 0zM750.19 809.38 a3.5 3.5 0 1 0 7 0 a3.5 3.5 0 1 0 -7 0zM780.5 826.88 a3.5 3.5 0 1 0 7 0 a3.5 3.5 0 1 0 -7 0zM780.5 861.88 a3.5 3.5 0 1 0 7 0 a3.5 3.5 0 1 0 -7 0zM750.19 879.38 a3.5 3.5 0 1 0 7 0 a3.5 3.5 0 1 0 -7 0zM719.88 861.88 a3.5 3.5 0 1 0 7 0 a3.5 3.5 0 1 0 -7 0zM719.88 826.88 a3.5 3.5 0 1 0 7 0 a3.5 3.5 0 1 0 -7 0zM810.82 879.38 a3.5 3.5 0 1 0 7 0 a3.5 3.5 0 1 0 -7 0zM810.82 914.38 a3.5 3.5 0 1 0 7 0 a3.5 3.5 0 1 0 -7 0zM780.5 931.88 a3.5 3.5 0 1 0 7 0 a3.5 3.5 0 1 0 -7 0zM750.19 914.38 a3.5 3.5 0 1 0 7 0 a3.5 3.5 0 1 0 -7 0zM841.13 21.88 a3.5 3.5 0 1 0 7 0 a3.5 3.5 0 1 0 -7 0zM871.44 39.38 a3.5 3.5 0 1 0 7 0 a3.5 3.5 0 1 0 -7 0zM871.44 74.38 a3.5 3.5 0 1 0 7 0 a3.5 3.5 0 1 0 -7 0zM841.13 91.88 a3.5 3.5 0 1 0 7 0 a3.5 3.5 0 1 0 -7 0zM810.82 74.38 a3.5 3.5 0 1 0 7 0 a3.5 3.5 0 1 0 -7 0zM810.82 39.38 a3.5 3.5 0 1 0 7 0 a3.5 3.5 0 1 0 -7 0zM841.13 406.88 a3.5 3.5 0 1 0 7 0 a3.5 3.5 0 1 0 -7 0zM841.13 441.88 a3.5 3.5 0 1 0 7 0 a3.5 3.5 0 1 0 -7 0zM810.82 459.38 a3.5 3.5 0 1 0 7 0 a3.5 3.5 0 1 0 -7 0zM780.5 441.88 a3.5 3.5 0 1 0 7 0 a3.5 3.5 0 1 0 -7 0zM810.82 494.38 a3.5 3.5 0 1 0 7 0 a3.5 3.5 0 1 0 -7 0zM841.13 511.88 a3.5 3.5 0 1 0 7 0 a3.5 3.5 0 1 0 -7 0zM841.13 546.88 a3.5 3.5 0 1 0 7 0 a3.5 3.5 0 1 0 -7 0zM810.82 809.38 a3.5 3.5 0 1 0 7 0 a3.5 3.5 0 1 0 -7 0zM841.13 826.88 a3.5 3.5 0 1 0 7 0 a3.5 3.5 0 1 0 -7 0zM841.13 861.88 a3.5 3.5 0 1 0 7 0 a3.5 3.5 0 1 0 -7 0zM871.44 -30.62 a3.5 3.5 0 1 0 7 0 a3.5 3.5 0 1 0 -7 0zM901.75 -13.12 a3.5 3.5 0 1 0 7 0 a3.5 3.5 0 1 0 -7 0zM901.75 21.88 a3.5 3.5 0 1 0 7 0 a3.5 3.5 0 1 0 -7 0zM841.13 -13.12 a3.5 3.5 0 1 0 7 0 a3.5 3.5 0 1 0 -7 0zM871.44 179.38 a3.5 3.5 0 1 0 7 0 a3.5 3.5 0 1 0 -7 0zM901.75 196.88 a3.5 3.5 0 1 0 7 0 a3.5 3.5 0 1 0 -7 0zM901.75 231.88 a3.5 3.5 0 1 0 7 0 a3.5 3.5 0 1 0 -7 0zM871.44 249.38 a3.5 3.5 0 1 0 7 0 a3.5 3.5 0 1 0 -7 0zM841.13 231.88 a3.5 3.5 0 1 0 7 0 a3.5 3.5 0 1 0 -7 0zM841.13 196.88 a3.5 3.5 0 1 0 7 0 a3.5 3.5 0 1 0 -7 0zM932.06 249.38 a3.5 3.5 0 1 0 7 0 a3.5 3.5 0 1 0 -7 0zM932.06 284.38 a3.5 3.5 0 1 0 7 0 a3.5 3.5 0 1 0 -7 0zM901.75 301.88 a3.5 3.5 0 1 0 7 0 a3.5 3.5 0 1 0 -7 0zM871.44 284.38 a3.5 3.5 0 1 0 7 0 a3.5 3.5 0 1 0 -7 0zM901.75 546.88 a3.5 3.5 0 1 0 7 0 a3.5 3.5 0 1 0 -7 0zM932.06 564.38 a3.5 3.5 0 1 0 7 0 a3.5 3.5 0 1 0 -7 0zM932.06 599.38 a3.5 3.5 0 1 0 7 0 a3.5 3.5 0 1 0 -7 0zM901.75 616.88 a3.5 3.5 0 1 0 7 0 a3.5 3.5 0 1 0 -7 0zM871.44 599.38 a3.5 3.5 0 1 0 7 0 a3.5 3.5 0 1 0 -7 0zM871.44 564.38 a3.5 3.5 0 1 0 7 0 a3.5 3.5 0 1 0 -7 0zM901.75 756.88 a3.5 3.5 0 1 0 7 0 a3.5 3.5 0 1 0 -7 0zM932.06 774.38 a3.5 3.5 0 1 0 7 0 a3.5 3.5 0 1 0 -7 0zM932.06 809.38 a3.5 3.5 0 1 0 7 0 a3.5 3.5 0 1 0 -7 0zM901.75 826.88 a3.5 3.5 0 1 0 7 0 a3.5 3.5 0 1 0 -7 0zM871.44 809.38 a3.5 3.5 0 1 0 7 0 a3.5 3.5 0 1 0 -7 0zM871.44 774.38 a3.5 3.5 0 1 0 7 0 a3.5 3.5 0 1 0 -7 0zM901.75 861.88 a3.5 3.5 0 1 0 7 0 a3.5 3.5 0 1 0 -7 0zM932.06 879.38 a3.5 3.5 0 1 0 7 0 a3.5 3.5 0 1 0 -7 0zM932.06 914.38 a3.5 3.5 0 1 0 7 0 a3.5 3.5 0 1 0 -7 0zM901.75 931.88 a3.5 3.5 0 1 0 7 0 a3.5 3.5 0 1 0 -7 0zM871.44 914.38 a3.5 3.5 0 1 0 7 0 a3.5 3.5 0 1 0 -7 0zM871.44 879.38 a3.5 3.5 0 1 0 7 0 a3.5 3.5 0 1 0 -7 0zM932.06 179.38 a3.5 3.5 0 1 0 7 0 a3.5 3.5 0 1 0 -7 0zM962.37 196.88 a3.5 3.5 0 1 0 7 0 a3.5 3.5 0 1 0 -7 0zM962.37 231.88 a3.5 3.5 0 1 0 7 0 a3.5 3.5 0 1 0 -7 0zM962.37 301.88 a3.5 3.5 0 1 0 7 0 a3.5 3.5 0 1 0 -7 0zM962.37 336.88 a3.5 3.5 0 1 0 7 0 a3.5 3.5 0 1 0 -7 0zM932.06 354.38 a3.5 3.5 0 1 0 7 0 a3.5 3.5 0 1 0 -7 0zM901.75 336.88 a3.5 3.5 0 1 0 7 0 a3.5 3.5 0 1 0 -7 0zM932.06 494.38 a3.5 3.5 0 1 0 7 0 a3.5 3.5 0 1 0 -7 0zM962.37 511.88 a3.5 3.5 0 1 0 7 0 a3.5 3.5 0 1 0 -7 0zM962.37 546.88 a3.5 3.5 0 1 0 7 0 a3.5 3.5 0 1 0 -7 0zM901.75 511.88 a3.5 3.5 0 1 0 7 0 a3.5 3.5 0 1 0 -7 0zM962.37 756.88 a3.5 3.5 0 1 0 7 0 a3.5 3.5 0 1 0 -7 0zM992.69 774.38 a3.5 3.5 0 1 0 7 0 a3.5 3.5 0 1 0 -7 0zM992.69 809.38 a3.5 3.5 0 1 0 7 0 a3.5 3.5 0 1 0 -7 0zM962.37 826.88 a3.5 3.5 0 1 0 7 0 a3.5 3.5 0 1 0 -7 0zM992.69 -30.62 a3.5 3.5 0 1 0 7 0 a3.5 3.5 0 1 0 -7 0zM1023 -13.12 a3.5 3.5 0 1 0 7 0 a3.5 3.5 0 1 0 -7 0zM1023 21.88 a3.5 3.5 0 1 0 7 0 a3.5 3.5 0 1 0 -7 0zM992.69 39.38 a3.5 3.5 0 1 0 7 0 a3.5 3.5 0 1 0 -7 0zM962.37 21.88 a3.5 3.5 0 1 0 7 0 a3.5 3.5 0 1 0 -7 0zM962.37 -13.12 a3.5 3.5 0 1 0 7 0 a3.5 3.5 0 1 0 -7 0zM992.69 389.38 a3.5 3.5 0 1 0 7 0 a3.5 3.5 0 1 0 -7 0zM1023 406.88 a3.5 3.5 0 1 0 7 0 a3.5 3.5 0 1 0 -7 0zM1023 441.88 a3.5 3.5 0 1 0 7 0 a3.5 3.5 0 1 0 -7 0zM992.69 459.38 a3.5 3.5 0 1 0 7 0 a3.5 3.5 0 1 0 -7 0zM962.37 441.88 a3.5 3.5 0 1 0 7 0 a3.5 3.5 0 1 0 -7 0zM962.37 406.88 a3.5 3.5 0 1 0 7 0 a3.5 3.5 0 1 0 -7 0zM992.69 914.38 a3.5 3.5 0 1 0 7 0 a3.5 3.5 0 1 0 -7 0zM1023 931.88 a3.5 3.5 0 1 0 7 0 a3.5 3.5 0 1 0 -7 0zM1023 966.88 a3.5 3.5 0 1 0 7 0 a3.5 3.5 0 1 0 -7 0zM992.69 984.38 a3.5 3.5 0 1 0 7 0 a3.5 3.5 0 1 0 -7 0zM962.37 966.88 a3.5 3.5 0 1 0 7 0 a3.5 3.5 0 1 0 -7 0zM962.37 931.88 a3.5 3.5 0 1 0 7 0 a3.5 3.5 0 1 0 -7 0zM1053.31 984.38 a3.5 3.5 0 1 0 7 0 a3.5 3.5 0 1 0 -7 0zM1053.31 1019.38 a3.5 3.5 0 1 0 7 0 a3.5 3.5 0 1 0 -7 0zM1023 1036.88 a3.5 3.5 0 1 0 7 0 a3.5 3.5 0 1 0 -7 0zM992.69 1019.38 a3.5 3.5 0 1 0 7 0 a3.5 3.5 0 1 0 -7 0zM1083.62 126.88 a3.5 3.5 0 1 0 7 0 a3.5 3.5 0 1 0 -7 0zM1113.93 144.38 a3.5 3.5 0 1 0 7 0 a3.5 3.5 0 1 0 -7 0zM1113.93 179.38 a3.5 3.5 0 1 0 7 0 a3.5 3.5 0 1 0 -7 0zM1083.62 196.88 a3.5 3.5 0 1 0 7 0 a3.5 3.5 0 1 0 -7 0zM1053.31 179.38 a3.5 3.5 0 1 0 7 0 a3.5 3.5 0 1 0 -7 0zM1053.31 144.38 a3.5 3.5 0 1 0 7 0 a3.5 3.5 0 1 0 -7 0zM1053.31 284.38 a3.5 3.5 0 1 0 7 0 a3.5 3.5 0 1 0 -7 0zM1083.62 301.88 a3.5 3.5 0 1 0 7 0 a3.5 3.5 0 1 0 -7 0zM1083.62 336.88 a3.5 3.5 0 1 0 7 0 a3.5 3.5 0 1 0 -7 0zM1053.31 354.38 a3.5 3.5 0 1 0 7 0 a3.5 3.5 0 1 0 -7 0zM1023 336.88 a3.5 3.5 0 1 0 7 0 a3.5 3.5 0 1 0 -7 0zM1023 301.88 a3.5 3.5 0 1 0 7 0 a3.5 3.5 0 1 0 -7 0zM1053.31 389.38 a3.5 3.5 0 1 0 7 0 a3.5 3.5 0 1 0 -7 0zM1083.62 406.88 a3.5 3.5 0 1 0 7 0 a3.5 3.5 0 1 0 -7 0zM1083.62 441.88 a3.5 3.5 0 1 0 7 0 a3.5 3.5 0 1 0 -7 0zM1053.31 459.38 a3.5 3.5 0 1 0 7 0 a3.5 3.5 0 1 0 -7 0zM1053.31 494.38 a3.5 3.5 0 1 0 7 0 a3.5 3.5 0 1 0 -7 0zM1083.62 511.88 a3.5 3.5 0 1 0 7 0 a3.5 3.5 0 1 0 -7 0zM1083.62 546.88 a3.5 3.5 0 1 0 7 0 a3.5 3.5 0 1 0 -7 0zM1053.31 564.38 a3.5 3.5 0 1 0 7 0 a3.5 3.5 0 1 0 -7 0zM1023 546.88 a3.5 3.5 0 1 0 7 0 a3.5 3.5 0 1 0 -7 0zM1023 511.88 a3.5 3.5 0 1 0 7 0 a3.5 3.5 0 1 0 -7 0zM1053.31 809.38 a3.5 3.5 0 1 0 7 0 a3.5 3.5 0 1 0 -7 0zM1083.62 826.88 a3.5 3.5 0 1 0 7 0 a3.5 3.5 0 1 0 -7 0zM1083.62 861.88 a3.5 3.5 0 1 0 7 0 a3.5 3.5 0 1 0 -7 0zM1053.31 879.38 a3.5 3.5 0 1 0 7 0 a3.5 3.5 0 1 0 -7 0zM1023 861.88 a3.5 3.5 0 1 0 7 0 a3.5 3.5 0 1 0 -7 0zM1023 826.88 a3.5 3.5 0 1 0 7 0 a3.5 3.5 0 1 0 -7 0zM1083.62 966.88 a3.5 3.5 0 1 0 7 0 a3.5 3.5 0 1 0 -7 0zM1113.93 984.38 a3.5 3.5 0 1 0 7 0 a3.5 3.5 0 1 0 -7 0zM1113.93 1019.38 a3.5 3.5 0 1 0 7 0 a3.5 3.5 0 1 0 -7 0zM1083.62 1036.88 a3.5 3.5 0 1 0 7 0 a3.5 3.5 0 1 0 -7 0zM1113.93 74.38 a3.5 3.5 0 1 0 7 0 a3.5 3.5 0 1 0 -7 0zM1144.24 91.88 a3.5 3.5 0 1 0 7 0 a3.5 3.5 0 1 0 -7 0zM1144.24 126.88 a3.5 3.5 0 1 0 7 0 a3.5 3.5 0 1 0 -7 0zM1083.62 91.88 a3.5 3.5 0 1 0 7 0 a3.5 3.5 0 1 0 -7 0zM1144.24 196.88 a3.5 3.5 0 1 0 7 0 a3.5 3.5 0 1 0 -7 0zM1144.24 231.88 a3.5 3.5 0 1 0 7 0 a3.5 3.5 0 1 0 -7 0zM1113.93 249.38 a3.5 3.5 0 1 0 7 0 a3.5 3.5 0 1 0 -7 0zM1083.62 231.88 a3.5 3.5 0 1 0 7 0 a3.5 3.5 0 1 0 -7 0zM1144.24 441.88 a3.5 3.5 0 1 0 7 0 a3.5 3.5 0 1 0 -7 0zM1174.56 459.38 a3.5 3.5 0 1 0 7 0 a3.5 3.5 0 1 0 -7 0zM1174.56 494.38 a3.5 3.5 0 1 0 7 0 a3.5 3.5 0 1 0 -7 0zM1144.24 511.88 a3.5 3.5 0 1 0 7 0 a3.5 3.5 0 1 0 -7 0zM1113.93 494.38 a3.5 3.5 0 1 0 7 0 a3.5 3.5 0 1 0 -7 0zM1113.93 459.38 a3.5 3.5 0 1 0 7 0 a3.5 3.5 0 1 0 -7 0zM1144.24 651.88 a3.5 3.5 0 1 0 7 0 a3.5 3.5 0 1 0 -7 0zM1174.56 669.38 a3.5 3.5 0 1 0 7 0 a3.5 3.5 0 1 0 -7 0zM1174.56 704.38 a3.5 3.5 0 1 0 7 0 a3.5 3.5 0 1 0 -7 0zM1144.24 721.88 a3.5 3.5 0 1 0 7 0 a3.5 3.5 0 1 0 -7 0zM1113.93 704.38 a3.5 3.5 0 1 0 7 0 a3.5 3.5 0 1 0 -7 0zM1113.93 669.38 a3.5 3.5 0 1 0 7 0 a3.5 3.5 0 1 0 -7 0zM1174.56 -30.62 a3.5 3.5 0 1 0 7 0 a3.5 3.5 0 1 0 -7 0zM1204.87 -13.12 a3.5 3.5 0 1 0 7 0 a3.5 3.5 0 1 0 -7 0zM1204.87 21.88 a3.5 3.5 0 1 0 7 0 a3.5 3.5 0 1 0 -7 0zM1174.56 39.38 a3.5 3.5 0 1 0 7 0 a3.5 3.5 0 1 0 -7 0zM1144.24 21.88 a3.5 3.5 0 1 0 7 0 a3.5 3.5 0 1 0 -7 0zM1144.24 -13.12 a3.5 3.5 0 1 0 7 0 a3.5 3.5 0 1 0 -7 0zM1174.56 389.38 a3.5 3.5 0 1 0 7 0 a3.5 3.5 0 1 0 -7 0zM1204.87 406.88 a3.5 3.5 0 1 0 7 0 a3.5 3.5 0 1 0 -7 0zM1204.87 441.88 a3.5 3.5 0 1 0 7 0 a3.5 3.5 0 1 0 -7 0zM1144.24 406.88 a3.5 3.5 0 1 0 7 0 a3.5 3.5 0 1 0 -7 0zM1204.87 511.88 a3.5 3.5 0 1 0 7 0 a3.5 3.5 0 1 0 -7 0zM1204.87 546.88 a3.5 3.5 0 1 0 7 0 a3.5 3.5 0 1 0 -7 0zM1174.56 564.38 a3.5 3.5 0 1 0 7 0 a3.5 3.5 0 1 0 -7 0zM1144.24 546.88 a3.5 3.5 0 1 0 7 0 a3.5 3.5 0 1 0 -7 0zM1204.87 721.88 a3.5 3.5 0 1 0 7 0 a3.5 3.5 0 1 0 -7 0zM1204.87 756.88 a3.5 3.5 0 1 0 7 0 a3.5 3.5 0 1 0 -7 0zM1174.56 774.38 a3.5 3.5 0 1 0 7 0 a3.5 3.5 0 1 0 -7 0zM1144.24 756.88 a3.5 3.5 0 1 0 7 0 a3.5 3.5 0 1 0 -7 0zM1235.18 774.38 a3.5 3.5 0 1 0 7 0 a3.5 3.5 0 1 0 -7 0zM1235.18 809.38 a3.5 3.5 0 1 0 7 0 a3.5 3.5 0 1 0 -7 0zM1204.87 826.88 a3.5 3.5 0 1 0 7 0 a3.5 3.5 0 1 0 -7 0zM1174.56 809.38 a3.5 3.5 0 1 0 7 0 a3.5 3.5 0 1 0 -7 0zM1204.87 861.88 a3.5 3.5 0 1 0 7 0 a3.5 3.5 0 1 0 -7 0zM1174.56 879.38 a3.5 3.5 0 1 0 7 0 a3.5 3.5 0 1 0 -7 0zM1144.24 861.88 a3.5 3.5 0 1 0 7 0 a3.5 3.5 0 1 0 -7 0zM1144.24 826.88 a3.5 3.5 0 1 0 7 0 a3.5 3.5 0 1 0 -7 0zM1235.18 879.38 a3.5 3.5 0 1 0 7 0 a3.5 3.5 0 1 0 -7 0zM1235.18 914.38 a3.5 3.5 0 1 0 7 0 a3.5 3.5 0 1 0 -7 0zM1204.87 931.88 a3.5 3.5 0 1 0 7 0 a3.5 3.5 0 1 0 -7 0zM1174.56 914.38 a3.5 3.5 0 1 0 7 0 a3.5 3.5 0 1 0 -7 0zM1204.87 966.88 a3.5 3.5 0 1 0 7 0 a3.5 3.5 0 1 0 -7 0zM1174.56 984.38 a3.5 3.5 0 1 0 7 0 a3.5 3.5 0 1 0 -7 0zM1144.24 966.88 a3.5 3.5 0 1 0 7 0 a3.5 3.5 0 1 0 -7 0zM1144.24 931.88 a3.5 3.5 0 1 0 7 0 a3.5 3.5 0 1 0 -7 0zM1265.49 21.88 a3.5 3.5 0 1 0 7 0 a3.5 3.5 0 1 0 -7 0zM1295.8 39.38 a3.5 3.5 0 1 0 7 0 a3.5 3.5 0 1 0 -7 0zM1295.8 74.38 a3.5 3.5 0 1 0 7 0 a3.5 3.5 0 1 0 -7 0zM1265.49 91.88 a3.5 3.5 0 1 0 7 0 a3.5 3.5 0 1 0 -7 0zM1235.18 74.38 a3.5 3.5 0 1 0 7 0 a3.5 3.5 0 1 0 -7 0zM1235.18 39.38 a3.5 3.5 0 1 0 7 0 a3.5 3.5 0 1 0 -7 0zM1265.49 441.88 a3.5 3.5 0 1 0 7 0 a3.5 3.5 0 1 0 -7 0zM1295.8 459.38 a3.5 3.5 0 1 0 7 0 a3.5 3.5 0 1 0 -7 0zM1295.8 494.38 a3.5 3.5 0 1 0 7 0 a3.5 3.5 0 1 0 -7 0zM1265.49 511.88 a3.5 3.5 0 1 0 7 0 a3.5 3.5 0 1 0 -7 0zM1235.18 494.38 a3.5 3.5 0 1 0 7 0 a3.5 3.5 0 1 0 -7 0zM1235.18 459.38 a3.5 3.5 0 1 0 7 0 a3.5 3.5 0 1 0 -7 0zM1235.18 599.38 a3.5 3.5 0 1 0 7 0 a3.5 3.5 0 1 0 -7 0zM1265.49 616.88 a3.5 3.5 0 1 0 7 0 a3.5 3.5 0 1 0 -7 0zM1265.49 651.88 a3.5 3.5 0 1 0 7 0 a3.5 3.5 0 1 0 -7 0zM1235.18 669.38 a3.5 3.5 0 1 0 7 0 a3.5 3.5 0 1 0 -7 0zM1204.87 651.88 a3.5 3.5 0 1 0 7 0 a3.5 3.5 0 1 0 -7 0zM1204.87 616.88 a3.5 3.5 0 1 0 7 0 a3.5 3.5 0 1 0 -7 0zM1265.49 826.88 a3.5 3.5 0 1 0 7 0 a3.5 3.5 0 1 0 -7 0zM1265.49 861.88 a3.5 3.5 0 1 0 7 0 a3.5 3.5 0 1 0 -7 0zM1265.49 931.88 a3.5 3.5 0 1 0 7 0 a3.5 3.5 0 1 0 -7 0zM1265.49 966.88 a3.5 3.5 0 1 0 7 0 a3.5 3.5 0 1 0 -7 0zM1235.18 984.38 a3.5 3.5 0 1 0 7 0 a3.5 3.5 0 1 0 -7 0zM1326.12 91.88 a3.5 3.5 0 1 0 7 0 a3.5 3.5 0 1 0 -7 0zM1326.12 126.88 a3.5 3.5 0 1 0 7 0 a3.5 3.5 0 1 0 -7 0zM1295.8 144.38 a3.5 3.5 0 1 0 7 0 a3.5 3.5 0 1 0 -7 0zM1265.49 126.88 a3.5 3.5 0 1 0 7 0 a3.5 3.5 0 1 0 -7 0zM1326.12 336.88 a3.5 3.5 0 1 0 7 0 a3.5 3.5 0 1 0 -7 0zM1356.43 354.38 a3.5 3.5 0 1 0 7 0 a3.5 3.5 0 1 0 -7 0zM1356.43 389.38 a3.5 3.5 0 1 0 7 0 a3.5 3.5 0 1 0 -7 0zM1326.12 406.88 a3.5 3.5 0 1 0 7 0 a3.5 3.5 0 1 0 -7 0zM1295.8 389.38 a3.5 3.5 0 1 0 7 0 a3.5 3.5 0 1 0 -7 0zM1295.8 354.38 a3.5 3.5 0 1 0 7 0 a3.5 3.5 0 1 0 -7 0zM1326.12 441.88 a3.5 3.5 0 1 0 7 0 a3.5 3.5 0 1 0 -7 0zM1265.49 406.88 a3.5 3.5 0 1 0 7 0 a3.5 3.5 0 1 0 -7 0zM1326.12 511.88 a3.5 3.5 0 1 0 7 0 a3.5 3.5 0 1 0 -7 0zM1326.12 546.88 a3.5 3.5 0 1 0 7 0 a3.5 3.5 0 1 0 -7 0zM1295.8 564.38 a3.5 3.5 0 1 0 7 0 a3.5 3.5 0 1 0 -7 0zM1265.49 546.88 a3.5 3.5 0 1 0 7 0 a3.5 3.5 0 1 0 -7 0zM1356.43 564.38 a3.5 3.5 0 1 0 7 0 a3.5 3.5 0 1 0 -7 0zM1356.43 599.38 a3.5 3.5 0 1 0 7 0 a3.5 3.5 0 1 0 -7 0zM1326.12 616.88 a3.5 3.5 0 1 0 7 0 a3.5 3.5 0 1 0 -7 0zM1295.8 599.38 a3.5 3.5 0 1 0 7 0 a3.5 3.5 0 1 0 -7 0zM1326.12 651.88 a3.5 3.5 0 1 0 7 0 a3.5 3.5 0 1 0 -7 0zM1356.43 669.38 a3.5 3.5 0 1 0 7 0 a3.5 3.5 0 1 0 -7 0zM1356.43 704.38 a3.5 3.5 0 1 0 7 0 a3.5 3.5 0 1 0 -7 0zM1326.12 721.88 a3.5 3.5 0 1 0 7 0 a3.5 3.5 0 1 0 -7 0zM1295.8 704.38 a3.5 3.5 0 1 0 7 0 a3.5 3.5 0 1 0 -7 0zM1295.8 669.38 a3.5 3.5 0 1 0 7 0 a3.5 3.5 0 1 0 -7 0zM1326.12 756.88 a3.5 3.5 0 1 0 7 0 a3.5 3.5 0 1 0 -7 0zM1356.43 774.38 a3.5 3.5 0 1 0 7 0 a3.5 3.5 0 1 0 -7 0zM1356.43 809.38 a3.5 3.5 0 1 0 7 0 a3.5 3.5 0 1 0 -7 0zM1326.12 826.88 a3.5 3.5 0 1 0 7 0 a3.5 3.5 0 1 0 -7 0zM1295.8 809.38 a3.5 3.5 0 1 0 7 0 a3.5 3.5 0 1 0 -7 0zM1295.8 774.38 a3.5 3.5 0 1 0 7 0 a3.5 3.5 0 1 0 -7 0zM1326.12 861.88 a3.5 3.5 0 1 0 7 0 a3.5 3.5 0 1 0 -7 0zM1295.8 879.38 a3.5 3.5 0 1 0 7 0 a3.5 3.5 0 1 0 -7 0zM1386.74 336.88 a3.5 3.5 0 1 0 7 0 a3.5 3.5 0 1 0 -7 0zM1417.05 354.38 a3.5 3.5 0 1 0 7 0 a3.5 3.5 0 1 0 -7 0zM1417.05 389.38 a3.5 3.5 0 1 0 7 0 a3.5 3.5 0 1 0 -7 0zM1386.74 406.88 a3.5 3.5 0 1 0 7 0 a3.5 3.5 0 1 0 -7 0zM1386.74 861.88 a3.5 3.5 0 1 0 7 0 a3.5 3.5 0 1 0 -7 0zM1417.05 879.38 a3.5 3.5 0 1 0 7 0 a3.5 3.5 0 1 0 -7 0zM1417.05 914.38 a3.5 3.5 0 1 0 7 0 a3.5 3.5 0 1 0 -7 0zM1386.74 931.88 a3.5 3.5 0 1 0 7 0 a3.5 3.5 0 1 0 -7 0zM1356.43 914.38 a3.5 3.5 0 1 0 7 0 a3.5 3.5 0 1 0 -7 0zM1356.43 879.38 a3.5 3.5 0 1 0 7 0 a3.5 3.5 0 1 0 -7 0zM1447.36 21.88 a3.5 3.5 0 1 0 7 0 a3.5 3.5 0 1 0 -7 0zM1477.67 39.38 a3.5 3.5 0 1 0 7 0 a3.5 3.5 0 1 0 -7 0zM1477.67 74.38 a3.5 3.5 0 1 0 7 0 a3.5 3.5 0 1 0 -7 0zM1447.36 91.88 a3.5 3.5 0 1 0 7 0 a3.5 3.5 0 1 0 -7 0zM1417.05 74.38 a3.5 3.5 0 1 0 7 0 a3.5 3.5 0 1 0 -7 0zM1417.05 39.38 a3.5 3.5 0 1 0 7 0 a3.5 3.5 0 1 0 -7 0zM1447.36 406.88 a3.5 3.5 0 1 0 7 0 a3.5 3.5 0 1 0 -7 0zM1447.36 441.88 a3.5 3.5 0 1 0 7 0 a3.5 3.5 0 1 0 -7 0zM1417.05 459.38 a3.5 3.5 0 1 0 7 0 a3.5 3.5 0 1 0 -7 0zM1386.74 441.88 a3.5 3.5 0 1 0 7 0 a3.5 3.5 0 1 0 -7 0zM1447.36 546.88 a3.5 3.5 0 1 0 7 0 a3.5 3.5 0 1 0 -7 0zM1477.67 564.38 a3.5 3.5 0 1 0 7 0 a3.5 3.5 0 1 0 -7 0zM1477.67 599.38 a3.5 3.5 0 1 0 7 0 a3.5 3.5 0 1 0 -7 0zM1447.36 616.88 a3.5 3.5 0 1 0 7 0 a3.5 3.5 0 1 0 -7 0zM1417.05 599.38 a3.5 3.5 0 1 0 7 0 a3.5 3.5 0 1 0 -7 0zM1417.05 564.38 a3.5 3.5 0 1 0 7 0 a3.5 3.5 0 1 0 -7 0zM1447.36 966.88 a3.5 3.5 0 1 0 7 0 a3.5 3.5 0 1 0 -7 0zM1477.67 984.38 a3.5 3.5 0 1 0 7 0 a3.5 3.5 0 1 0 -7 0zM1477.67 1019.38 a3.5 3.5 0 1 0 7 0 a3.5 3.5 0 1 0 -7 0zM1447.36 1036.88 a3.5 3.5 0 1 0 7 0 a3.5 3.5 0 1 0 -7 0zM1417.05 1019.38 a3.5 3.5 0 1 0 7 0 a3.5 3.5 0 1 0 -7 0zM1417.05 984.38 a3.5 3.5 0 1 0 7 0 a3.5 3.5 0 1 0 -7 0z" fill="rgba(6, 132, 136, 0.45)"></path></g><defs><mask id="SvgjsMask1012"><rect width="1440" height="1000" fill="#ffffff"></rect></mask><linearGradient x1="0%" y1="50%" x2="100%" y2="50%" gradientUnits="userSpaceOnUse" id="SvgjsLinearGradient1013"><stop stop-color="rgba(15, 30, 45, 1)" offset="0.1"></stop><stop stop-color="rgba(31, 180, 188, 1)" offset="1"></stop></linearGradient></defs></svg>